<?xml version="1.0" standalone="no"?>
<!DOCTYPE svg PUBLIC "-//W3C//DTD SVG 1.1//EN" "http://www.w3.org/Graphics/SVG/1.1/DTD/svg11.dtd" >
<svg>
<metadata>
Created by FontForge 20110222 at Wed Jul  9 03:13:54 2014
 By deploy user
(c) copyright 2000 Mike Abbink/Method, Inc. Produced by The Font Bureau, Inc.
</metadata>
<defs>
<font id="Kievit-Regular" horiz-adv-x="1077" >
  <font-face 
    font-family="Kievit"
    font-weight="500"
    font-stretch="normal"
    units-per-em="1000"
    panose-1="2 0 6 3 4 0 0 2 0 4"
    ascent="800"
    descent="-200"
    x-height="480"
    cap-height="666"
    bbox="-65 -250 1042 893"
    underline-thickness="20"
    underline-position="-113"
    unicode-range="U+0005-2122"
  />
<missing-glyph horiz-adv-x="500" 
 />
    <glyph glyph-name=".notdef" horiz-adv-x="500" 
 />
    <glyph glyph-name=".null" horiz-adv-x="0" 
 />
    <glyph glyph-name="nonmarkingreturn" horiz-adv-x="225" 
 />
    <glyph glyph-name="space" unicode=" " horiz-adv-x="225" 
 />
    <glyph glyph-name="space" unicode="&#xa0;" horiz-adv-x="225" 
 />
    <glyph glyph-name="lslash" horiz-adv-x="250" 
d="M91 720h73v-314l81 66v-69l-81 -66v-337h-73v278l-67 -54v68q18 15 33 27l12 10t11 9t11 8v374z" />
    <glyph glyph-name="Scaron" unicode="&#x160;" horiz-adv-x="499" 
d="M451 167q0 -39 -16 -72t-44.5 -57t-69 -37t-88.5 -13q-38 0 -69 7.5t-54.5 18t-40 22t-25.5 20.5l40 56q6 -5 17.5 -15t30.5 -20t45 -17t59 -7q31 0 56 9.5t43 25t27.5 36t9.5 42.5q0 30 -13 52.5t-34.5 40t-49 32t-56.5 28.5q-30 15 -58 31.5t-49.5 38t-34.5 50.5
t-13 69q0 41 16 72.5t43 53.5t62 33t73 11q37 0 66 -6t50.5 -14t36 -17.5t22.5 -15.5l-38 -58q-9 7 -21.5 15t-30 15t-39 11.5t-47.5 4.5q-50 0 -83 -27.5t-33 -73.5q0 -25 9.5 -43.5t26 -33.5t38 -27t46.5 -24q33 -16 67 -33.5t61 -42t44.5 -58.5t17.5 -83zM167 872l81 -85
l79 85h69l-123 -153h-54l-121 153h69z" />
    <glyph glyph-name="scaron" unicode="&#x161;" horiz-adv-x="408" 
d="M364 129q0 -66 -46 -104t-125 -38q-52 0 -90.5 15t-61.5 31l32 56q14 -10 44.5 -24.5t74.5 -14.5q45 0 71.5 18t26.5 51q0 16 -6.5 28.5t-20 23t-33.5 20.5t-46 21q-28 12 -52 25t-42 30t-28 39.5t-10 53.5q0 28 10 52t29.5 42t48 28t64.5 10q30 0 53.5 -5.5t41.5 -13
t29.5 -15.5t17.5 -12l-36 -53q-13 10 -39.5 23t-67.5 13q-38 0 -59 -17.5t-21 -48.5q0 -34 26 -51.5t66 -34.5q29 -12 56 -25.5t47.5 -30.5t33 -39.5t12.5 -52.5zM122 692l81 -85l79 85h69l-123 -153h-54l-121 153h69z" />
    <glyph glyph-name="Yacute" unicode="&#xdd;" horiz-adv-x="555" 
d="M319 252v-252h-78v252l-223 414h87l178 -340h1l178 340h75zM308 846h109l-135 -126h-66z" />
    <glyph glyph-name="yacute" unicode="&#xfd;" horiz-adv-x="469" 
d="M249 -64q-12 -33 -27 -63.5t-37 -54t-53 -37t-75 -13.5q-19 0 -29 1.5t-17 3.5l10 61q5 -1 12 -2t25 -1q25 0 43.5 7t32.5 21t24.5 34t20.5 47l23 63l-181 477h82l137 -383h2l133 383h78zM288 666h109l-135 -126h-66z" />
    <glyph glyph-name="Thorn" unicode="&#xde;" horiz-adv-x="542" 
d="M497 359q0 -99 -64 -152t-181 -53h-78v-154h-78v666h78v-115h89q50 0 93 -12t74.5 -36t49 -60t17.5 -84zM417 356q0 28 -8.5 52t-28 41t-50.5 26.5t-75 9.5h-81v-265h78q88 0 126.5 35t38.5 101z" />
    <glyph glyph-name="thorn" unicode="&#xfe;" horiz-adv-x="529" 
d="M489 241q0 -57 -15.5 -103.5t-44 -79.5t-67.5 -51.5t-85 -18.5q-51 0 -79.5 15t-42.5 27v-249h-73v939h73v-292q19 23 53 43.5t86 20.5q44 0 80 -17t61.5 -49t39.5 -78.5t14 -106.5zM411 239q0 40 -8 74.5t-24 59.5t-41 39t-59 14q-25 0 -46 -8t-36.5 -19t-26 -22
t-15.5 -18v-264q17 -15 43.5 -29.5t71.5 -14.5q34 0 60.5 14t44.5 39.5t27 59.5t9 75z" />
    <glyph glyph-name="Zcaron" horiz-adv-x="561" 
d="M46 0v55l364 547h-347v64h439v-51l-369 -551h381v-64h-468zM209 872l81 -85l79 85h69l-123 -153h-54l-121 153h69z" />
    <glyph glyph-name="zcaron" horiz-adv-x="423" 
d="M42 0v46l244 375h-230v59h319v-49l-245 -372h249v-59h-337zM136 692l81 -85l79 85h69l-123 -153h-54l-121 153h69z" />
    <glyph glyph-name="onehalf" unicode="&#xbd;" 
d="M1007 -217h-937v937h937v-937zM145 -142h787v787h-787v-787zM652 509h79l-202 -239l215 -270h-85q-59 73 -105 131q-20 25 -39 48t-33 42q-18 21 -32 41v-262h-68v509h68v-242z" />
    <glyph glyph-name="onequarter" unicode="&#xbc;" 
d="M1007 -217h-937v937h937v-937zM145 -142h787v787h-787v-787zM652 509h79l-202 -239l215 -270h-85q-59 73 -105 131q-20 25 -39 48t-33 42q-18 21 -32 41v-262h-68v509h68v-242z" />
    <glyph glyph-name="onesuperior" unicode="&#xb9;" 
d="M1007 -217h-937v937h937v-937zM145 -142h787v787h-787v-787zM652 509h79l-202 -239l215 -270h-85q-59 73 -105 131q-20 25 -39 48t-33 42q-18 21 -32 41v-262h-68v509h68v-242z" />
    <glyph glyph-name="threequarters" unicode="&#xbe;" 
d="M1007 -217h-937v937h937v-937zM145 -142h787v787h-787v-787zM652 509h79l-202 -239l215 -270h-85q-59 73 -105 131q-20 25 -39 48t-33 42q-18 21 -32 41v-262h-68v509h68v-242z" />
    <glyph glyph-name="threesuperior" unicode="&#xb3;" 
d="M1007 -217h-937v937h937v-937zM145 -142h787v787h-787v-787zM652 509h79l-202 -239l215 -270h-85q-59 73 -105 131q-20 25 -39 48t-33 42q-18 21 -32 41v-262h-68v509h68v-242z" />
    <glyph glyph-name="twosuperior" unicode="&#xb2;" 
d="M1007 -217h-937v937h937v-937zM145 -142h787v787h-787v-787zM652 509h79l-202 -239l215 -270h-85q-59 73 -105 131q-20 25 -39 48t-33 42q-18 21 -32 41v-262h-68v509h68v-242z" />
    <glyph glyph-name="brokenbar" unicode="&#xa6;" 
d="M1007 -217h-937v937h937v-937zM145 -142h787v787h-787v-787zM652 509h79l-202 -239l215 -270h-85q-59 73 -105 131q-20 25 -39 48t-33 42q-18 21 -32 41v-262h-68v509h68v-242z" />
    <glyph glyph-name="minus" unicode="&#xad;" 
d="M1007 -217h-937v937h937v-937zM145 -142h787v787h-787v-787zM652 509h79l-202 -239l215 -270h-85q-59 73 -105 131q-20 25 -39 48t-33 42q-18 21 -32 41v-262h-68v509h68v-242z" />
    <glyph glyph-name="multiply" unicode="&#xd7;" 
d="M1007 -217h-937v937h937v-937zM145 -142h787v787h-787v-787zM652 509h79l-202 -239l215 -270h-85q-59 73 -105 131q-20 25 -39 48t-33 42q-18 21 -32 41v-262h-68v509h68v-242z" />
    <glyph glyph-name="Lslash" horiz-adv-x="471" 
d="M96 0v280l-73 -57l-32 42l105 84v317h78v-256l106 84l34 -43l-140 -110v-275h262v-66h-340z" />
    <glyph glyph-name="exclam" unicode="!" horiz-adv-x="275" 
d="M166 199h-58l-16 467h90zM194 49q0 -24 -17 -40.5t-40 -16.5t-40 16.5t-17 40.5q0 23 17 39.5t40 16.5t40 -16.5t17 -39.5z" />
    <glyph glyph-name="quotedbl" unicode="&#x22;" horiz-adv-x="327" 
d="M261 444h-58l-11 222h92zM124 444h-58l-23 222h92z" />
    <glyph glyph-name="numbersign" unicode="#" horiz-adv-x="494" 
d="M471 479l-10 -59h-96l-16 -111h96l-10 -59h-95l-21 -144h-59l21 144h-101l-22 -144h-59l22 144h-98l10 59h97l17 111h-97l9 59h96l20 131h59l-20 -131h101l20 131h59l-20 -131h97zM205 420l-16 -111h101l17 111h-102z" />
    <glyph glyph-name="dollar" unicode="$" horiz-adv-x="408" 
d="M178 593h71v-103q49 -6 78.5 -22t39.5 -24l-35 -54q-13 10 -43.5 24.5t-75.5 14.5q-42 0 -66 -16.5t-24 -48.5q0 -25 19.5 -42t48.5 -30.5t62.5 -27t62.5 -31t48.5 -42.5t19.5 -62q0 -57 -34.5 -93t-100.5 -46v-113h-71v111q-49 4 -83 19t-54 29l32 57q7 -5 19 -12.5
t28.5 -14t37 -11.5t44.5 -5q52 0 80 18t28 51q0 26 -19 42t-48 29.5t-62 26.5t-62 31t-48 45t-19 68q0 50 33.5 85t92.5 43v104z" />
    <glyph glyph-name="percent" unicode="%" horiz-adv-x="746" 
d="M317 354q0 -24 -8 -49t-25.5 -45.5t-44.5 -33.5t-64 -13q-38 0 -64.5 12.5t-43.5 33t-25 45t-8 48.5t8.5 49t25.5 45t44 33t65 13q37 0 64 -12.5t43.5 -32.5t24.5 -44.5t8 -48.5zM264 0h-63l287 480h63zM712 129q0 -24 -8 -49t-25.5 -45.5t-44.5 -33.5t-64 -13
q-38 0 -64.5 12.5t-43.5 33t-25 45t-8 48.5t8.5 49t25.5 45t44 33t65 13q37 0 64 -12.5t43.5 -32.5t24.5 -44.5t8 -48.5zM256 352q0 38 -19.5 65t-61.5 27t-61 -26t-19 -64t20 -65.5t62 -27.5t60.5 26.5t18.5 64.5zM651 127q0 38 -19.5 65t-61.5 27t-61 -26t-19 -64
t20 -65.5t62 -27.5t60.5 26.5t18.5 64.5z" />
    <glyph glyph-name="ampersand" unicode="&#x26;" horiz-adv-x="625" 
d="M177 358q-38 41 -61 79.5t-23 86.5q0 35 13 63.5t36.5 48.5t56 31t70.5 11q36 0 66 -10.5t51.5 -29t34 -44.5t12.5 -57q0 -58 -38.5 -100t-111.5 -84l175 -186q40 64 55 151l70 -12q-9 -54 -29.5 -102t-49.5 -87l110 -117h-98l-60 64q-41 -36 -90 -56t-105 -20
q-53 0 -94 14.5t-70 39.5t-44 58t-15 70q0 36 10.5 64t29.5 50t44 39.5t55 34.5zM244 394q62 35 88.5 68t26.5 73q0 33 -24.5 57.5t-66.5 24.5q-45 0 -70.5 -25t-25.5 -64q0 -36 19.5 -67t52.5 -67zM217 315q-48 -27 -74.5 -61t-26.5 -81q0 -51 37.5 -85t109.5 -34
q45 0 81.5 15t66.5 42z" />
    <glyph glyph-name="quotesingle" unicode="'" horiz-adv-x="187" 
d="M123 444h-59l-18 222h95z" />
    <glyph glyph-name="parenleft" unicode="(" horiz-adv-x="309" 
d="M236 -177q-21 22 -51.5 62.5t-59.5 98t-49.5 131.5t-20.5 165q0 86 20 157.5t48.5 127t59.5 94.5t53 61h70q-23 -24 -53 -64t-57 -95.5t-46 -125.5t-19 -154t16.5 -154t42 -126t56.5 -100.5t60 -77.5h-70z" />
    <glyph glyph-name="parenright" unicode=")" horiz-adv-x="309" 
d="M3 -177q29 33 60 77t56.5 100.5t42 126t16.5 153.5t-19 154t-46 126t-57 96t-53 64h70q22 -22 53 -61t59.5 -94t48.5 -126.5t20 -157.5q0 -91 -20.5 -165.5t-49.5 -132t-59.5 -98t-51.5 -62.5h-70v0z" />
    <glyph glyph-name="asterisk" unicode="*" horiz-adv-x="454" 
d="M355 361l-46 -34l-83 119l-83 -119l-46 34l85 114l-136 42l18 54l134 -47l-4 142h64l-4 -142l134 47l19 -54l-137 -42z" />
    <glyph glyph-name="plus" unicode="+" horiz-adv-x="511" 
d="M290 233v-193h-69v193h-183v64h183v183h69v-183h183v-64h-183z" />
    <glyph glyph-name="comma" unicode="," horiz-adv-x="220" 
d="M173 34q0 -28 -7.5 -54.5t-18.5 -48.5t-22.5 -39t-19.5 -27h-51q12 17 26.5 45.5t14.5 57.5q0 13 -7 22.5t-15 18.5t-15 20t-7 29q0 23 16 38.5t40 15.5q27 0 46.5 -20t19.5 -58z" />
    <glyph glyph-name="hyphen" unicode="-" horiz-adv-x="309" 
d="M54 255v64h201v-64h-201z" />
    <glyph glyph-name="period" unicode="." horiz-adv-x="220" 
d="M171 52q0 -26 -17.5 -43.5t-43.5 -17.5t-43.5 17.5t-17.5 43.5t17.5 43t43.5 17t43.5 -17t17.5 -43z" />
    <glyph glyph-name="slash" unicode="/" horiz-adv-x="402" 
d="M77 -161h-70l318 881h70z" />
    <glyph glyph-name="zero" unicode="0" horiz-adv-x="570" 
d="M530 241q0 -43 -15 -88t-45.5 -81.5t-77 -60t-109.5 -23.5t-109 23t-76 59.5t-44 81t-14 87.5t14.5 87.5t44.5 81.5t76.5 60.5t109.5 23.5t109.5 -23t76.5 -59t44.5 -81t14.5 -88zM452 239q0 39 -11 73.5t-32 60.5t-52.5 41t-73.5 15t-73 -15t-51.5 -40.5t-30.5 -59.5
t-10 -73t10.5 -73.5t31.5 -60.5t52 -41t73 -15t73 14.5t52 40t31.5 60t10.5 73.5z" />
    <glyph glyph-name="one" unicode="1" horiz-adv-x="323" 
d="M160 0v412l-111 -38l-15 61l139 45h60v-480h-73z" />
    <glyph glyph-name="two" unicode="2" horiz-adv-x="480" 
d="M27 0v28q19 16 48 39.5t60.5 51t63 57.5t57 60.5t41 59t15.5 53.5q0 35 -22.5 57t-71.5 22q-22 0 -41 -6t-35 -14.5t-28.5 -18.5t-20.5 -19l-42 47q13 13 31.5 26.5t41 24.5t48 17.5t51.5 6.5q34 0 64 -8t53 -25t36.5 -42.5t13.5 -60.5q0 -27 -12.5 -55.5t-32.5 -56.5
t-46 -54.5t-52 -50.5t-51 -44.5t-43 -35.5q8 0 18 1q8 1 17.5 1.5t19.5 0.5h230v-62h-411z" />
    <glyph glyph-name="three" unicode="3" horiz-adv-x="428" 
d="M386 23q0 -50 -21 -89.5t-56 -66.5t-81 -41t-96 -14q-36 0 -54 1t-29 3l11 62q7 -2 22.5 -3.5t38.5 -1.5q37 0 71 9.5t59.5 27.5t41 44t15.5 60q0 41 -16 68t-43 42.5t-62 21.5t-72 6v55q28 0 58.5 10t56 28t42 43t16.5 57q0 38 -24.5 60.5t-70.5 22.5q-42 0 -71.5 -18
t-46.5 -34l-38 48q10 10 25.5 22t36 22.5t45 17t52.5 6.5q41 0 72.5 -12t53 -31.5t32.5 -45t11 -52.5q0 -30 -12.5 -56.5t-32 -47.5t-43 -35t-46.5 -20v-1q31 -5 59 -18.5t49.5 -35.5t34 -51t12.5 -63z" />
    <glyph glyph-name="four" unicode="4" horiz-adv-x="560" 
d="M414 0v-177h-73v177h-311v48l324 432h60v-418h111v-62h-111zM341 362h-2l-226 -300h228v300z" />
    <glyph glyph-name="five" unicode="5" horiz-adv-x="420" 
d="M380 40q0 -47 -18 -88t-53.5 -72.5t-86.5 -49.5t-117 -18q-18 0 -34 2t-26 4l13 61q5 -1 17 -2.5t37 -1.5q37 0 71.5 10t61 30.5t42.5 50.5t16 70q0 41 -13.5 69.5t-37.5 46.5t-56.5 26t-70.5 8h-26t-30 -2l20 296h280v-59h-213l-11 -175q61 0 105.5 -17t73.5 -45.5
t42.5 -65.5t13.5 -78z" />
    <glyph glyph-name="six" unicode="6" horiz-adv-x="509" 
d="M468 198q0 -42 -14 -80.5t-40.5 -67t-64.5 -45.5t-86 -17q-59 0 -100.5 25t-68 65.5t-38.5 90.5t-12 100q0 90 26 165t76 129.5t122 84.5t165 30l15 -61q-137 0 -222 -69.5t-99 -204.5q26 23 64 37.5t80 14.5q46 0 82.5 -14.5t62 -40.5t39 -62.5t13.5 -79.5zM391 188
q0 68 -31.5 106.5t-97.5 38.5q-50 0 -83 -15.5t-56 -33.5q-1 -8 -1 -14v-11q0 -46 8.5 -84.5t26.5 -66t45 -42.5t65 -15q31 0 54 12t38.5 31.5t23.5 44t8 49.5z" />
    <glyph glyph-name="seven" unicode="7" horiz-adv-x="446" 
d="M114 -198l-63 31l274 582h-309v65h390v-52z" />
    <glyph glyph-name="eight" unicode="8" horiz-adv-x="511" 
d="M455 167q0 -41 -15 -74t-41.5 -56t-63.5 -36t-81 -13q-51 0 -88.5 15t-62 39.5t-36.5 56t-12 63.5q0 33 13 61.5t33 52.5t44.5 42.5t47.5 31.5q-24 15 -46 31.5t-38.5 36.5t-26 44t-9.5 53q0 36 15 66t40 51.5t57.5 33.5t67.5 12q46 0 81 -13t58.5 -34.5t35.5 -50.5
t12 -61q0 -30 -12 -54.5t-31 -44t-42 -35.5t-45 -29q25 -14 50.5 -32t46.5 -41t34.5 -52t13.5 -64zM365 514q0 42 -27.5 71.5t-79.5 29.5q-49 0 -79 -28t-30 -72q0 -23 10.5 -42t27 -34.5t35.5 -28t36 -22.5q18 11 36.5 24t34.5 29t26 34t10 39zM379 168q0 26 -12.5 48.5
t-32.5 41t-44 34t-46 27.5q-18 -12 -38 -26.5t-37 -33t-28 -41.5t-11 -51q0 -50 34.5 -82.5t92.5 -32.5q30 0 52.5 9.5t38 25t23.5 36.5t8 45z" />
    <glyph glyph-name="nine" unicode="9" horiz-adv-x="511" 
d="M464 210q0 -90 -27 -163t-78 -124.5t-125.5 -80t-170.5 -28.5l-14 60q64 0 121 16t101.5 48t73.5 81.5t36 116.5q-29 -21 -64 -35.5t-80 -14.5t-81.5 15t-61.5 42t-38.5 63.5t-13.5 79.5q0 42 15.5 79.5t43.5 65.5t66.5 44.5t83.5 16.5q60 0 101 -26t66 -66.5t35.5 -90.5
t10.5 -99zM387 219q0 45 -8.5 83.5t-25.5 66.5t-43.5 44t-62.5 16q-26 0 -49 -10t-40 -28.5t-27.5 -44.5t-10.5 -58q0 -60 31 -100t96 -40q27 0 50 5t40.5 12.5t30 15.5t18.5 13v8q0 4 0.5 8t0.5 9z" />
    <glyph glyph-name="colon" unicode=":" horiz-adv-x="225" 
d="M173 427q0 -26 -17.5 -43.5t-43.5 -17.5t-43.5 17.5t-17.5 43.5t17.5 43.5t43.5 17.5t43.5 -17.5t17.5 -43.5zM173 53q0 -26 -17.5 -44t-43.5 -18t-43.5 18t-17.5 44t17.5 43t43.5 17t43.5 -17t17.5 -43z" />
    <glyph glyph-name="semicolon" unicode=";" horiz-adv-x="225" 
d="M173 427q0 -26 -17.5 -43.5t-43.5 -17.5t-43.5 17.5t-17.5 43.5t17.5 43.5t43.5 17.5t43.5 -17.5t17.5 -43.5zM176 34q0 -28 -7.5 -54.5t-18.5 -48.5t-22.5 -39t-19.5 -27h-51q12 17 26.5 45.5t14.5 57.5q0 13 -7 22.5t-15 18.5t-15 20t-7 29q0 23 16 38.5t40 15.5
q27 0 46.5 -20t19.5 -58z" />
    <glyph glyph-name="less" unicode="&#x3c;" horiz-adv-x="361" 
d="M277 27l-250 219l250 222l41 -42l-200 -177l200 -176z" />
    <glyph glyph-name="equal" unicode="=" horiz-adv-x="459" 
d="M35 316v63h389v-63h-389zM35 153v63h389v-63h-389z" />
    <glyph glyph-name="greater" unicode="&#x3e;" horiz-adv-x="361" 
d="M84 468l250 -219l-250 -222l-41 42l200 177l-200 176z" />
    <glyph glyph-name="question" unicode="?" horiz-adv-x="405" 
d="M355 508q0 -39 -13 -68t-32 -50t-41 -36t-40 -25q-30 -18 -40 -35t-10 -46v-55h-71v63q0 39 14.5 66.5t59.5 54.5q20 12 37.5 23.5t30 26t20 33t7.5 44.5q0 57 -33 83.5t-90 26.5q-24 0 -46 -7t-36 -14l-27 58q18 9 47.5 18t66.5 9q48 0 85 -13t61.5 -35.5t37 -53.5
t12.5 -68zM202 49q0 -24 -17 -40.5t-40 -16.5t-40 16.5t-17 40.5q0 23 17 39.5t40 16.5t40 -16.5t17 -39.5z" />
    <glyph glyph-name="at" unicode="@" horiz-adv-x="765" 
d="M729 319q0 -47 -13 -90t-36 -75.5t-55 -51.5t-70 -19q-51 0 -78 31.5t-27 80.5h-2q-7 -16 -19 -35.5t-29 -36.5t-40 -28.5t-51 -11.5q-23 0 -40.5 10t-29.5 26t-18 37t-6 42q0 48 13 95.5t39.5 85.5t66.5 61.5t93 23.5q32 0 63.5 -8t53.5 -13l-25 -139q-4 -20 -9 -46
t-5 -49q0 -29 15 -49.5t38 -20.5q25 0 46 14t36 37.5t23.5 55t8.5 66.5q0 55 -21 101t-57.5 79.5t-85.5 52.5t-105 19q-57 0 -110.5 -25.5t-95 -69t-66.5 -102t-25 -124.5q0 -60 18.5 -110.5t53.5 -88t86 -58.5t116 -21q44 0 84.5 9t64.5 20l23 -51q-28 -11 -77 -22.5
t-106 -11.5q-77 0 -138 26t-103.5 71t-65 105.5t-22.5 128.5q0 74 27 142.5t75.5 121t115 84t145.5 31.5t140 -28.5t102.5 -72t62.5 -97t21 -102.5zM476 403q-4 1 -11 3t-15 3.5t-16 2.5t-13 1q-30 0 -55 -17.5t-42 -46t-26.5 -65t-9.5 -75.5q0 -22 9 -43t30 -21
q30 0 53.5 24t41.5 60t30.5 77.5t19.5 76.5l4 20v0z" />
    <glyph glyph-name="A" unicode="A" horiz-adv-x="627" 
d="M98 0h-77l255 666h76l256 -666h-85l-61 165h-303zM395 345l-42 114q-8 21 -15 41t-13 37q-7 19 -13 37h-2q-6 -18 -13 -37q-6 -17 -13 -37.5t-15 -40.5l-85 -228h253z" />
    <glyph glyph-name="B" unicode="B" horiz-adv-x="572" 
d="M519 187q0 -51 -18 -86.5t-51 -58t-79 -32.5t-102 -10h-173v666h176q46 0 86 -9t69.5 -29t46 -51.5t16.5 -76.5q0 -59 -32 -96t-87 -51v-2q31 -5 58 -18.5t47 -34.5t31.5 -49t11.5 -62zM410 495q0 56 -36.5 81t-107.5 25h-93v-221h91q77 0 111.5 28t34.5 87zM438 185
q0 30 -8.5 54t-28 41.5t-51 26.5t-77.5 9h-100v-251h94q89 0 130 28.5t41 91.5z" />
    <glyph glyph-name="C" unicode="C" horiz-adv-x="615" 
d="M579 55q-13 -12 -33 -24t-45.5 -21.5t-56.5 -15.5t-66 -6q-78 0 -138.5 29t-102 77t-63 110.5t-21.5 130.5q0 67 22 129.5t64 109.5t102.5 75.5t137.5 28.5q64 0 107 -13.5t80 -36.5l-39 -59q-29 20 -65.5 32t-84.5 12q-60 0 -105.5 -23t-75.5 -61t-45.5 -88t-15.5 -104
q0 -55 15 -106t45.5 -90.5t76.5 -63t108 -23.5q54 0 94 16t69 41l36 -56v0z" />
    <glyph glyph-name="D" unicode="D" horiz-adv-x="679" 
d="M629 341q0 -72 -22.5 -134.5t-69 -108t-118.5 -72t-172 -26.5h-151v666h156q98 0 169.5 -24t117.5 -66.5t68 -102.5t22 -132zM547 339q0 136 -73 199.5t-225 63.5h-75v-538h80q145 0 219 69.5t74 205.5z" />
    <glyph glyph-name="E" unicode="E" horiz-adv-x="503" 
d="M96 0v666h342v-66h-264v-214h232v-66h-232v-254h271v-66h-349z" />
    <glyph glyph-name="F" unicode="F" horiz-adv-x="490" 
d="M174 600v-214h236v-66h-236v-320h-78v666h349v-66h-271z" />
    <glyph glyph-name="G" unicode="G" horiz-adv-x="707" 
d="M629 57q-3 -3 -18.5 -14t-45 -23.5t-74.5 -22t-107 -9.5q-79 0 -140.5 29t-104 77.5t-64.5 111t-22 129.5q0 68 22.5 130t65 109.5t105 75.5t142.5 28q42 0 75 -6t58.5 -15t44 -20.5t32.5 -21.5l-41 -57q-15 12 -31.5 22t-37 17.5t-45.5 11.5t-57 4q-65 0 -112.5 -23
t-78.5 -61.5t-45.5 -88t-14.5 -103.5t15 -105t45.5 -90.5t78 -63.5t112.5 -24q44 0 75 6t51 14q24 9 39 21v187h-143v66h221v-291v0z" />
    <glyph glyph-name="H" unicode="H" horiz-adv-x="725" 
d="M551 0v318h-377v-318h-78v666h78v-282h377v282h78v-666h-78z" />
    <glyph glyph-name="I" unicode="I" horiz-adv-x="282" 
d="M102 0v666h78v-666h-78z" />
    <glyph glyph-name="J" unicode="J" horiz-adv-x="283" 
d="M187 -14q0 -85 -38 -130.5t-113 -45.5q-21 0 -36 3.5t-21 6.5l12 67q5 -2 15 -4.5t24 -2.5q41 0 60 28.5t19 89.5v668h78v-680v0z" />
    <glyph glyph-name="K" unicode="K" horiz-adv-x="569" 
d="M535 666l-268 -314l286 -352h-97l-280 347l268 319h91zM96 0v666h77v-666h-77z" />
    <glyph glyph-name="L" unicode="L" horiz-adv-x="473" 
d="M96 0v666h78v-600h262v-66h-340z" />
    <glyph glyph-name="M" unicode="M" horiz-adv-x="852" 
d="M386 0l-162 437q-7 17 -12 33.5t-10 29.5q-5 15 -10 29h-2q-1 -15 -3 -31q-2 -14 -3.5 -30.5t-3.5 -33.5l-53 -434h-73l91 666h73l165 -453q8 -23 15.5 -45t13.5 -39q7 -20 13 -39h2q6 19 13 39q6 17 13.5 39t15.5 45l165 453h74l90 -666h-79l-57 436q-2 17 -4 33t-4 30
q-2 16 -3 30h-2q-5 -15 -9 -30q-5 -14 -10 -29.5t-11 -32.5l-158 -437h-75z" />
    <glyph glyph-name="N" unicode="N" horiz-adv-x="711" 
d="M545 0l-329 475q-9 12 -18 27t-17 28q-9 15 -17 31h-2l2 -24q1 -11 1.5 -24t0.5 -25v-488h-72v666h77l314 -451q11 -17 22.5 -34.5t20.5 -31.5q11 -17 19 -32h2q-1 12 -2 26q-1 12 -1.5 28t-0.5 36v459h72v-666h-72z" />
    <glyph glyph-name="O" unicode="O" horiz-adv-x="760" 
d="M707 334q0 -69 -22 -131.5t-64 -110t-102.5 -76t-137.5 -28.5t-138 28t-103 75.5t-64.5 109.5t-22.5 131t22 131.5t64 110t102.5 76t137.5 28.5t138 -28t103 -75.5t64.5 -109.5t22.5 -131zM625 332q0 56 -16 107t-46.5 89.5t-76 61.5t-105.5 23t-105.5 -22.5t-77 -61
t-47.5 -89t-16 -106.5t16 -107t46.5 -89.5t76 -61.5t105.5 -23t105.5 22.5t77 60.5t47.5 89t16 107z" />
    <glyph glyph-name="P" unicode="P" horiz-adv-x="542" 
d="M497 474q0 -99 -64 -152t-181 -53h-78v-269h-78v666h167q50 0 93 -12t74.5 -36t49 -60t17.5 -84zM417 471q0 28 -8.5 52t-28 41t-50.5 26.5t-75 9.5h-81v-265h78q88 0 126.5 35t38.5 101z" />
    <glyph glyph-name="Q" unicode="Q" horiz-adv-x="760" 
d="M456 -4q37 -47 74.5 -70.5t94.5 -23.5q29 0 50.5 10t30.5 18l29 -58q-16 -14 -44.5 -24t-66.5 -10q-34 0 -65 7.5t-62 25t-62 46.5t-65 71q-74 2 -133 31t-100 76t-62.5 108t-21.5 129q0 69 22 131.5t64 110t102.5 76t137.5 28.5t138 -28t103 -75.5t64.5 -109.5
t22.5 -131q0 -60 -17 -115.5t-49 -100.5t-78.5 -77t-106.5 -45zM625 332q0 56 -16 107t-46.5 89.5t-76 61.5t-105.5 23t-105.5 -22.5t-77 -61t-47.5 -89t-16 -106.5t16 -107t46.5 -89.5t76 -61.5t105.5 -23t105.5 22.5t77 60.5t47.5 89t16 107z" />
    <glyph glyph-name="R" unicode="R" horiz-adv-x="570" 
d="M454 0l-134 189q-29 41 -47.5 64.5t-32.5 35.5t-26 15t-29 3h-11v-307h-78v666h181q105 0 163 -46t58 -131q0 -42 -14.5 -73.5t-39.5 -53t-59 -33.5t-74 -14v-2q10 -7 25.5 -24.5t44.5 -58.5l165 -230h-92zM418 487q0 56 -36.5 84.5t-113.5 28.5h-94v-229h100
q75 0 109.5 30t34.5 86z" />
    <glyph glyph-name="S" unicode="S" horiz-adv-x="499" 
d="M451 167q0 -39 -16 -72t-44.5 -57t-69 -37t-88.5 -13q-38 0 -69 7.5t-54.5 18t-40 22t-25.5 20.5l40 56q6 -5 17.5 -15t30.5 -20t45 -17t59 -7q31 0 56 9.5t43 25t27.5 36t9.5 42.5q0 30 -13 52.5t-34.5 40t-49 32t-56.5 28.5q-30 15 -58 31.5t-49.5 38t-34.5 50.5
t-13 69q0 41 16 72.5t43 53.5t62 33t73 11q37 0 66 -6t50.5 -14t36 -17.5t22.5 -15.5l-38 -58q-9 7 -21.5 15t-30 15t-39 11.5t-47.5 4.5q-50 0 -83 -27.5t-33 -73.5q0 -25 9.5 -43.5t26 -33.5t38 -27t46.5 -24q33 -16 67 -33.5t61 -42t44.5 -58.5t17.5 -83z" />
    <glyph glyph-name="T" unicode="T" horiz-adv-x="497" 
d="M288 600v-600h-79v600h-189v66h457v-66h-189z" />
    <glyph glyph-name="U" unicode="U" horiz-adv-x="690" 
d="M600 253q0 -61 -15 -110t-46 -83.5t-78.5 -53t-112.5 -18.5q-68 0 -117 19t-80.5 53t-46 82t-14.5 107v417h78v-407q0 -104 44 -154t138 -50q90 0 133.5 53t43.5 137v421h73v-413v0z" />
    <glyph glyph-name="V" unicode="V" horiz-adv-x="616" 
d="M350 0h-76l-256 666h84l171 -459q7 -20 14 -40.5t13 -37.5q7 -20 13 -39h2q6 19 12 39q5 17 12 37.5t15 40.5l167 459h77z" />
    <glyph glyph-name="W" unicode="W" horiz-adv-x="875" 
d="M670 0h-71l-129 450q-6 20 -11 42.5t-9 41.5q-4 22 -9 44h-2q-6 -21 -11 -43q-5 -19 -10.5 -42t-11.5 -43l-132 -450h-71l-182 666h85l113 -445q5 -19 8.5 -39t7.5 -37l8 -40h2q4 20 9 40q4 17 9.5 37t10.5 39l128 445h80l126 -442q5 -20 10.5 -40.5t9.5 -37.5
q4 -20 8 -39h2q3 18 7 38q3 17 7 38t9 41l115 442h77z" />
    <glyph glyph-name="X" unicode="X" horiz-adv-x="565" 
d="M438 666h82l-195 -321l215 -345h-89l-176 282l-168 -282h-82l211 345l-200 321h89l161 -258z" />
    <glyph glyph-name="Y" unicode="Y" horiz-adv-x="555" 
d="M319 252v-252h-78v252l-223 414h87l178 -340h1l178 340h75z" />
    <glyph glyph-name="Z" unicode="Z" horiz-adv-x="561" 
d="M46 0v55l364 547h-347v64h439v-51l-369 -551h381v-64h-468z" />
    <glyph glyph-name="bracketleft" unicode="[" horiz-adv-x="306" 
d="M80 -161v881h201v-57h-130v-767h130v-57h-201z" />
    <glyph glyph-name="backslash" unicode="\" horiz-adv-x="402" 
d="M77 720l318 -881h-70l-318 881h70z" />
    <glyph glyph-name="bracketright" unicode="]" horiz-adv-x="306" 
d="M226 720v-881h-201v57h130v767h-130v57h201z" />
    <glyph glyph-name="asciicircum" unicode="^" horiz-adv-x="584" 
d="M456 288l-164 301l-164 -301h-67l205 378h51l205 -378h-66z" />
    <glyph glyph-name="underscore" unicode="_" horiz-adv-x="395" 
d="M-1 -159v61h397v-61h-397z" />
    <glyph glyph-name="grave" unicode="`" horiz-adv-x="500" 
d="M284 540l-135 126h109l92 -126h-66z" />
    <glyph glyph-name="a" unicode="a" horiz-adv-x="472" 
d="M332 0q-2 10 -4 28.5t-3 29.5q-8 -11 -21.5 -23t-31.5 -22.5t-41 -17.5t-50 -7q-60 0 -98.5 35t-38.5 94q0 48 23.5 79.5t61 50.5t82.5 27t89 8h21v45q0 46 -20 73t-76 27q-26 0 -46 -6t-35.5 -14.5t-26 -17t-17.5 -14.5l-39 51q9 8 23.5 19.5t35 22t48 17.5t62.5 7
q79 0 121.5 -38.5t42.5 -120.5v-224q0 -36 3 -64t8 -45h-73zM321 228h-21q-39 0 -71.5 -5.5t-56 -18.5t-37 -34t-13.5 -51q0 -19 7 -32t17.5 -21t23 -11.5t23.5 -3.5q27 0 48 8t36.5 19t26.5 22.5t17 19.5v108z" />
    <glyph glyph-name="b" unicode="b" horiz-adv-x="519" 
d="M152 720v-278q16 17 47.5 33.5t72.5 16.5q49 0 87.5 -18t65 -51t40.5 -79t14 -102q0 -55 -18 -101.5t-50.5 -80.5t-77 -53t-96.5 -19q-35 0 -62.5 5t-48 11.5t-32.5 12.5t-15 8v695h73zM152 66q7 -3 28.5 -9t57.5 -6q41 0 71.5 16t51 42t30.5 60.5t10 70.5
q0 38 -7.5 71.5t-25 59t-44.5 40.5t-66 15q-20 0 -38 -6t-32.5 -14t-23.5 -16t-12 -11v-313z" />
    <glyph glyph-name="c" unicode="c" horiz-adv-x="440" 
d="M409 36q-7 -6 -19.5 -14.5t-31.5 -16t-44 -12.5t-56 -5q-53 0 -94 21t-68.5 55.5t-41.5 80t-14 95.5q0 61 18 108.5t48 79t70 48t85 16.5q30 0 53 -5t41 -12.5t31 -15.5t22 -15l-35 -55q-19 14 -45 27t-68 13q-37 0 -64 -14.5t-44 -39.5t-25.5 -59.5t-8.5 -73.5
q0 -38 8.5 -73t26 -61t44.5 -41.5t65 -15.5q22 0 41.5 4.5t34.5 11t25.5 13.5t15.5 11l30 -55v0z" />
    <glyph glyph-name="d" unicode="d" horiz-adv-x="523" 
d="M40 239q0 57 16 103.5t44.5 80t67.5 51.5t84 18q51 0 79.5 -15t42.5 -27v270h73v-622q0 -32 5 -59.5l7 -38.5h-73q-2 8 -5 24.5t-4 30.5q-20 -26 -54.5 -46.5t-84.5 -20.5q-43 0 -79.5 16.5t-62.5 49t-41 79t-15 106.5zM118 241q0 -41 7.5 -75.5t24 -59t42 -38.5
t61.5 -14q24 0 44 8t35.5 18.5t26 21.5t15.5 18v265q-17 15 -43.5 29.5t-71.5 14.5q-34 0 -60.5 -14t-44.5 -39.5t-27 -60t-9 -74.5z" />
    <glyph glyph-name="e" unicode="e" horiz-adv-x="490" 
d="M118 242q1 -38 9.5 -73t26.5 -61t46 -41.5t69 -15.5q25 0 46 5t37.5 11.5t29 14t20.5 12.5l30 -57q-9 -6 -23.5 -14.5t-35 -16t-47 -13t-59.5 -5.5q-57 0 -99.5 20t-71 54.5t-42.5 81t-14 99.5t15.5 98.5t44 79t68.5 52.5t88 19t85.5 -18t61.5 -51t34.5 -79t5.5 -102
h-325v0zM370 300q-1 25 -7.5 48.5t-20 41.5t-35.5 28.5t-53 10.5q-58 0 -90 -36t-42 -93h248z" />
    <glyph glyph-name="f" unicode="f" horiz-adv-x="317" 
d="M336 656q-5 2 -21 7t-42 5q-48 0 -74 -31t-26 -91v-66h122v-58h-122v-422h-73v422h-80v58h80v71q0 83 45.5 132t129.5 49q35 0 54.5 -5t25.5 -8z" />
    <glyph glyph-name="g" unicode="g" horiz-adv-x="505" 
d="M473 480v-58h-74q35 -44 35 -106q0 -38 -13.5 -70t-38.5 -55.5t-60.5 -37t-79.5 -13.5q-28 0 -53 6q-9 -5 -20.5 -14t-11.5 -26q0 -20 19.5 -28t48.5 -10q39 -2 83 -4.5t81 -15t61.5 -41.5t24.5 -85q0 -37 -19.5 -66.5t-52 -50t-75.5 -31.5t-89 -11q-40 0 -75 7.5t-61 24
t-41 41.5t-15 61q0 41 23 72.5t59 51.5q-20 10 -31.5 26.5t-11.5 44.5q0 24 14.5 43.5t34.5 31.5q-41 23 -63 62t-22 87q0 38 13.5 70t38.5 55.5t60.5 37t79.5 13.5q40 0 75 -12h156zM359 316q0 51 -30.5 83.5t-86.5 32.5t-86.5 -32.5t-30.5 -83.5t30.5 -83.5t86.5 -32.5
t86.5 32.5t30.5 83.5zM184 6q-65 -38 -65 -101q0 -35 29 -59.5t94 -24.5q72 0 115.5 26.5t43.5 71.5q0 28 -11.5 44t-29.5 23.5t-40 9.5t-43 3q-23 2 -47 3t-46 4z" />
    <glyph glyph-name="h" unicode="h" horiz-adv-x="527" 
d="M376 0v328q0 45 -18.5 71.5t-66.5 26.5q-28 0 -51.5 -12t-42 -27t-30 -29.5t-15.5 -19.5v-338h-73v720h73v-309q8 10 21.5 24t33 26.5t44.5 21.5t57 9q38 0 64.5 -12t43.5 -32t25 -47.5t8 -58.5v-342h-73z" />
    <glyph glyph-name="i" unicode="i" horiz-adv-x="250" 
d="M125 678q23 0 38.5 -15.5t15.5 -38.5t-15.5 -38.5t-38.5 -15.5t-38.5 15.5t-15.5 38.5t15.5 38.5t38.5 15.5zM88 0v480h74v-480h-74z" />
    <glyph glyph-name="j" unicode="j" horiz-adv-x="239" 
d="M119 678q23 0 38.5 -15.5t15.5 -38.5t-15.5 -38.5t-38.5 -15.5t-38.5 15.5t-15.5 38.5t15.5 38.5t38.5 15.5zM157 -64q0 -37 -7.5 -67.5t-24 -52.5t-42.5 -34t-63 -12q-25 0 -37 2.5t-15 4.5l12 61q4 -2 11.5 -3.5t22.5 -1.5q40 0 55 30.5t15 85.5v531h73v-544v0z" />
    <glyph glyph-name="k" unicode="k" horiz-adv-x="468" 
d="M79 0v720h73v-720h-73zM355 480h87l-200 -212l209 -268h-89l-205 268z" />
    <glyph glyph-name="l" unicode="l" horiz-adv-x="241" 
d="M84 0v720h73v-720h-73z" />
    <glyph glyph-name="m" unicode="m" horiz-adv-x="793" 
d="M425 411q14 15 30 30t35 26t41.5 18t48.5 7q36 0 62 -11.5t42 -31.5t23.5 -47.5t7.5 -59.5v-342h-73v328q0 44 -16.5 71t-62.5 27q-22 0 -41.5 -7.5t-36 -19t-29 -24.5t-21.5 -24v-351h-73v328q0 45 -17.5 71.5t-59.5 26.5q-26 0 -48.5 -11.5t-39 -26.5t-27.5 -29.5
t-15 -19.5v-339h-73v480h73v-68q8 10 20.5 23.5t30.5 26t41.5 21.5t54.5 9q53 0 82 -23.5t41 -57.5z" />
    <glyph glyph-name="n" unicode="n" horiz-adv-x="530" 
d="M379 0v328q0 45 -18.5 71.5t-66.5 26.5q-28 0 -51.5 -12t-42 -27t-30 -29.5t-15.5 -19.5v-338h-73v480h73v-69q8 10 21.5 24t33 26.5t44.5 21.5t57 9q38 0 64.5 -12t43.5 -32t25 -47.5t8 -58.5v-342h-73z" />
    <glyph glyph-name="o" unicode="o" horiz-adv-x="528" 
d="M488 241q0 -42 -12.5 -87t-39.5 -81.5t-70 -60.5t-104 -24t-103 23.5t-68.5 60t-38.5 81t-12 86.5t11.5 87t37.5 81.5t67.5 60.5t102.5 24t104 -23.5t71 -60t41 -81t13 -86.5zM410 239q0 39 -9.5 73.5t-29 60.5t-48 41t-65.5 15q-38 0 -64.5 -15t-43 -40.5t-24.5 -59.5
t-8 -73t8.5 -73.5t26.5 -60.5t45 -41t65 -15q37 0 65 15t46 40.5t27 59.5t9 73z" />
    <glyph glyph-name="p" unicode="p" horiz-adv-x="529" 
d="M489 241q0 -57 -15.5 -103.5t-44 -79.5t-67.5 -51.5t-85 -18.5q-51 0 -79.5 15t-42.5 27v-249h-73v699h73v-52q19 23 53 43.5t86 20.5q44 0 80 -17t61.5 -49t39.5 -78.5t14 -106.5zM411 239q0 40 -8 74.5t-24 59.5t-41 39t-59 14q-25 0 -46 -8t-36.5 -19t-26 -22
t-15.5 -18v-264q17 -15 43.5 -29.5t71.5 -14.5q34 0 60.5 14t44.5 39.5t27 59.5t9 75z" />
    <glyph glyph-name="q" unicode="q" horiz-adv-x="522" 
d="M367 -217v255q-16 -17 -47.5 -33.5t-72.5 -16.5q-49 0 -87.5 18.5t-65 51.5t-40.5 79t-14 101t18.5 101.5t51 80.5t77 53t95.5 19q36 0 63.5 -5t47.5 -11.5t32 -12.5t15 -8v-672h-73zM367 412q-7 3 -27.5 10t-58.5 7q-41 0 -71.5 -16t-51 -42t-30.5 -60.5t-10 -70.5
q0 -38 7.5 -71.5t25 -59t44.5 -40.5t66 -15q20 0 38 6t32.5 14t23.5 16t12 11v311z" />
    <glyph glyph-name="r" unicode="r" horiz-adv-x="345" 
d="M315 412q-4 2 -13.5 5t-28.5 3q-27 0 -48 -13t-36 -30t-23.5 -33t-10.5 -22v-322h-73v480h73v-75q7 12 18.5 27t27.5 28.5t36.5 22.5t45.5 9q22 0 33.5 -4t16.5 -6z" />
    <glyph glyph-name="s" unicode="s" horiz-adv-x="408" 
d="M364 129q0 -66 -46 -104t-125 -38q-52 0 -90.5 15t-61.5 31l32 56q14 -10 44.5 -24.5t74.5 -14.5q45 0 71.5 18t26.5 51q0 16 -6.5 28.5t-20 23t-33.5 20.5t-46 21q-28 12 -52 25t-42 30t-28 39.5t-10 53.5q0 28 10 52t29.5 42t48 28t64.5 10q30 0 53.5 -5.5t41.5 -13
t29.5 -15.5t17.5 -12l-36 -53q-13 10 -39.5 23t-67.5 13q-38 0 -59 -17.5t-21 -48.5q0 -34 26 -51.5t66 -34.5q29 -12 56 -25.5t47.5 -30.5t33 -39.5t12.5 -52.5z" />
    <glyph glyph-name="t" unicode="t" horiz-adv-x="348" 
d="M325 17q-11 -7 -36.5 -18t-64.5 -11q-60 0 -90 33.5t-30 93.5v307h-79v58h79v137h73v-137h121v-58h-121v-300q0 -36 12 -53.5t44 -17.5q23 0 41 8t24 13l27 -55v0z" />
    <glyph glyph-name="u" unicode="u" horiz-adv-x="528" 
d="M149 480v-328q0 -45 18.5 -71.5t67.5 -26.5q27 0 51 12t42 27t29.5 29.5t15.5 19.5v338h73v-379q0 -31 3 -59t6 -42h-74q-2 9 -4 31t-3 40q-8 -11 -22 -25.5t-33.5 -27.5t-44.5 -21.5t-56 -8.5q-38 0 -65 12t-44 32t-25 47.5t-8 58.5v342h73z" />
    <glyph glyph-name="v" unicode="v" horiz-adv-x="462" 
d="M235 96l134 384h75l-177 -480h-68l-183 480h80l137 -384h2z" />
    <glyph glyph-name="w" unicode="w" horiz-adv-x="698" 
d="M533 0h-66l-119 373h-2l-120 -373h-66l-143 480h80l102 -363h2l113 363h71l113 -364h2l103 364h74z" />
    <glyph glyph-name="x" unicode="x" horiz-adv-x="462" 
d="M32 480h83l58 -86l58 -86l109 172h77l-150 -224l174 -256h-83l-135 199l-125 -199h-76l166 251z" />
    <glyph glyph-name="y" unicode="y" horiz-adv-x="469" 
d="M249 -64q-12 -33 -27 -63.5t-37 -54t-53 -37t-75 -13.5q-19 0 -29 1.5t-17 3.5l10 61q5 -1 12 -2t25 -1q25 0 43.5 7t32.5 21t24.5 34t20.5 47l23 63l-181 477h82l137 -383h2l133 383h78z" />
    <glyph glyph-name="z" unicode="z" horiz-adv-x="423" 
d="M42 0v46l244 375h-230v59h319v-49l-245 -372h249v-59h-337z" />
    <glyph glyph-name="braceleft" unicode="{" horiz-adv-x="358" 
d="M247 -161q-20 0 -39.5 6.5t-34.5 19.5t-24.5 33.5t-9.5 48.5v201q0 49 -29.5 78.5t-81.5 30.5v56q51 1 81 29.5t30 79.5v191q0 28 9.5 48.5t24.5 33.5t34 19t39 6h87v-57h-66q-35 0 -46 -21.5t-11 -57.5v-175q0 -55 -28 -82.5t-72 -38.5v-2q44 -13 72 -42.5t28 -85.5
v-187q0 -37 10.5 -56t45.5 -19h67v-57h-86z" />
    <glyph glyph-name="bar" unicode="|" horiz-adv-x="284" 
d="M112 -250v1000h60v-1000h-60z" />
    <glyph glyph-name="braceright" unicode="}" horiz-adv-x="358" 
d="M111 720q20 0 39.5 -6.5t34.5 -19.5t24.5 -33.5t9.5 -48.5v-190q0 -49 29.5 -78.5t81.5 -30.5v-56q-51 -1 -81 -29.5t-30 -79.5v-202q0 -28 -9.5 -48.5t-24.5 -33.5t-34 -19t-39 -6h-87v57h66q35 0 46 21.5t11 57.5v186q0 55 28 82.5t72 38.5v2q-44 13 -72 42.5t-28 85.5
v176q0 37 -10.5 56t-45.5 19h-67v57h86z" />
    <glyph glyph-name="asciitilde" unicode="~" horiz-adv-x="588" 
d="M533 239q-27 -26 -63 -43.5t-72 -17.5q-41 0 -69.5 11t-52.5 24t-46 24t-50 11q-30 0 -51 -12.5t-38 -27.5l-36 45q23 20 57 39.5t74 19.5q34 0 59.5 -11t49 -23.5t49 -23.5t60.5 -11q24 0 48.5 11.5t46.5 29.5l34 -45v0z" />
    <glyph glyph-name="Adieresis" unicode="&#xc4;" horiz-adv-x="627" 
d="M98 0h-77l255 666h76l256 -666h-85l-61 165h-303zM395 345l-42 114q-8 21 -15 41t-13 37q-7 19 -13 37h-2q-6 -18 -13 -37q-6 -17 -13 -37.5t-15 -40.5l-85 -228h253zM455 772q0 -23 -15.5 -38.5t-38.5 -15.5q-22 0 -37.5 15.5t-15.5 38.5q0 22 15.5 37.5t37.5 15.5
q23 0 38.5 -15.5t15.5 -37.5zM268 772q0 -23 -15.5 -38.5t-38.5 -15.5q-22 0 -37.5 15.5t-15.5 38.5q0 22 15.5 37.5t37.5 15.5q23 0 38.5 -15.5t15.5 -37.5z" />
    <glyph glyph-name="Aring" unicode="&#xc5;" horiz-adv-x="627" 
d="M403 798q0 -20 -8 -37.5t-21 -30t-30 -20t-36 -7.5t-36 7.5t-30 20t-21 30t-8 37.5t8 37.5t21 30t30 20t36 7.5t36 -7.5t30 -20t21 -30t8 -37.5zM98 0h-77l255 666h76l256 -666h-85l-61 165h-303zM358 798q0 23 -13.5 39t-36.5 16t-36.5 -16t-13.5 -39q0 -22 13.5 -38.5
t36.5 -16.5t36.5 16.5t13.5 38.5zM395 345l-42 114q-8 21 -15 41t-13 37q-7 19 -13 37h-2q-6 -18 -13 -37q-6 -17 -13 -37.5t-15 -40.5l-85 -228h253z" />
    <glyph glyph-name="Ccedilla" unicode="&#xc7;" horiz-adv-x="615" 
d="M325 -8q-66 10 -116.5 41.5t-85 78t-52.5 104t-18 119.5q0 67 22 129.5t64 109.5t102.5 75.5t137.5 28.5q64 0 107 -13.5t80 -36.5l-39 -59q-29 20 -65.5 32t-84.5 12q-60 0 -105.5 -23t-75.5 -61t-45.5 -88t-15.5 -104q0 -55 15 -106t45.5 -90.5t76.5 -63t108 -23.5
q54 0 94 16t69 41l36 -56q-13 -12 -33 -24t-45.5 -21.5t-56.5 -15.5t-66 -6h-4l-20 -54q31 -5 50.5 -23t19.5 -47q0 -41 -32.5 -62t-77.5 -21q-27 0 -42.5 4t-23.5 8l12 42q7 -4 20 -7.5t33 -3.5q23 0 36.5 9.5t13.5 29.5q0 14 -6 22t-16 12.5t-23 5.5t-26 1l33 88v0z" />
    <glyph glyph-name="Eacute" unicode="&#xc9;" horiz-adv-x="503" 
d="M96 0v666h342v-66h-264v-214h232v-66h-232v-254h271v-66h-349zM313 846h109l-135 -126h-66z" />
    <glyph glyph-name="Ntilde" unicode="&#xd1;" horiz-adv-x="711" 
d="M545 0l-329 475q-9 12 -18 27t-17 28q-9 15 -17 31h-2l2 -24q1 -11 1.5 -24t0.5 -25v-488h-72v666h77l314 -451q11 -17 22.5 -34.5t20.5 -31.5q11 -17 19 -32h2q-1 12 -2 26q-1 12 -1.5 28t-0.5 36v459h72v-666h-72zM500 781q-8 -10 -17.5 -20.5t-21 -18.5t-25.5 -13.5
t-32 -5.5t-31.5 6t-25 13.5t-23 13.5t-26.5 6q-17 0 -29.5 -12.5l-19.5 -19.5l-39 37q7 9 16 19.5t20.5 19.5t26 15t31.5 6q19 0 32.5 -6t25 -13.5t23 -13.5t25.5 -6q20 0 32.5 11.5t18.5 19.5l39 -38v0z" />
    <glyph glyph-name="Odieresis" unicode="&#xd6;" horiz-adv-x="760" 
d="M707 334q0 -69 -22 -131.5t-64 -110t-102.5 -76t-137.5 -28.5t-138 28t-103 75.5t-64.5 109.5t-22.5 131t22 131.5t64 110t102.5 76t137.5 28.5t138 -28t103 -75.5t64.5 -109.5t22.5 -131zM625 332q0 56 -16 107t-46.5 89.5t-76 61.5t-105.5 23t-105.5 -22.5t-77 -61
t-47.5 -89t-16 -106.5t16 -107t46.5 -89.5t76 -61.5t105.5 -23t105.5 22.5t77 60.5t47.5 89t16 107zM527 772q0 -23 -15.5 -38.5t-38.5 -15.5q-22 0 -37.5 15.5t-15.5 38.5q0 22 15.5 37.5t37.5 15.5q23 0 38.5 -15.5t15.5 -37.5zM340 772q0 -23 -15.5 -38.5t-38.5 -15.5
q-22 0 -37.5 15.5t-15.5 38.5q0 22 15.5 37.5t37.5 15.5q23 0 38.5 -15.5t15.5 -37.5z" />
    <glyph glyph-name="Udieresis" unicode="&#xdc;" horiz-adv-x="690" 
d="M600 253q0 -61 -15 -110t-46 -83.5t-78.5 -53t-112.5 -18.5q-68 0 -117 19t-80.5 53t-46 82t-14.5 107v417h78v-407q0 -104 44 -154t138 -50q90 0 133.5 53t43.5 137v421h73v-413v0zM494 772q0 -23 -15.5 -38.5t-38.5 -15.5q-22 0 -37.5 15.5t-15.5 38.5q0 22 15.5 37.5
t37.5 15.5q23 0 38.5 -15.5t15.5 -37.5zM307 772q0 -23 -15.5 -38.5t-38.5 -15.5q-22 0 -37.5 15.5t-15.5 38.5q0 22 15.5 37.5t37.5 15.5q23 0 38.5 -15.5t15.5 -37.5z" />
    <glyph glyph-name="aacute" unicode="&#xe1;" horiz-adv-x="472" 
d="M332 0q-2 10 -4 28.5t-3 29.5q-8 -11 -21.5 -23t-31.5 -22.5t-41 -17.5t-50 -7q-60 0 -98.5 35t-38.5 94q0 48 23.5 79.5t61 50.5t82.5 27t89 8h21v45q0 46 -20 73t-76 27q-26 0 -46 -6t-35.5 -14.5t-26 -17t-17.5 -14.5l-39 51q9 8 23.5 19.5t35 22t48 17.5t62.5 7
q79 0 121.5 -38.5t42.5 -120.5v-224q0 -36 3 -64t8 -45h-73zM321 228h-21q-39 0 -71.5 -5.5t-56 -18.5t-37 -34t-13.5 -51q0 -19 7 -32t17.5 -21t23 -11.5t23.5 -3.5q27 0 48 8t36.5 19t26.5 22.5t17 19.5v108zM278 666h109l-135 -126h-66z" />
    <glyph glyph-name="agrave" unicode="&#xe0;" horiz-adv-x="472" 
d="M332 0q-2 10 -4 28.5t-3 29.5q-8 -11 -21.5 -23t-31.5 -22.5t-41 -17.5t-50 -7q-60 0 -98.5 35t-38.5 94q0 48 23.5 79.5t61 50.5t82.5 27t89 8h21v45q0 46 -20 73t-76 27q-26 0 -46 -6t-35.5 -14.5t-26 -17t-17.5 -14.5l-39 51q9 8 23.5 19.5t35 22t48 17.5t62.5 7
q79 0 121.5 -38.5t42.5 -120.5v-224q0 -36 3 -64t8 -45h-73zM321 228h-21q-39 0 -71.5 -5.5t-56 -18.5t-37 -34t-13.5 -51q0 -19 7 -32t17.5 -21t23 -11.5t23.5 -3.5q27 0 48 8t36.5 19t26.5 22.5t17 19.5v108zM208 540l-135 126h109l92 -126h-66z" />
    <glyph glyph-name="acircumflex" unicode="&#xe2;" horiz-adv-x="472" 
d="M332 0q-2 10 -4 28.5t-3 29.5q-8 -11 -21.5 -23t-31.5 -22.5t-41 -17.5t-50 -7q-60 0 -98.5 35t-38.5 94q0 48 23.5 79.5t61 50.5t82.5 27t89 8h21v45q0 46 -20 73t-76 27q-26 0 -46 -6t-35.5 -14.5t-26 -17t-17.5 -14.5l-39 51q9 8 23.5 19.5t35 22t48 17.5t62.5 7
q79 0 121.5 -38.5t42.5 -120.5v-224q0 -36 3 -64t8 -45h-73zM321 228h-21q-39 0 -71.5 -5.5t-56 -18.5t-37 -34t-13.5 -51q0 -19 7 -32t17.5 -21t23 -11.5t23.5 -3.5q27 0 48 8t36.5 19t26.5 22.5t17 19.5v108zM317 541l-81 85l-79 -85h-69l123 153h54l121 -153h-69z" />
    <glyph glyph-name="adieresis" unicode="&#xe4;" horiz-adv-x="472" 
d="M332 0q-2 10 -4 28.5t-3 29.5q-8 -11 -21.5 -23t-31.5 -22.5t-41 -17.5t-50 -7q-60 0 -98.5 35t-38.5 94q0 48 23.5 79.5t61 50.5t82.5 27t89 8h21v45q0 46 -20 73t-76 27q-26 0 -46 -6t-35.5 -14.5t-26 -17t-17.5 -14.5l-39 51q9 8 23.5 19.5t35 22t48 17.5t62.5 7
q79 0 121.5 -38.5t42.5 -120.5v-224q0 -36 3 -64t8 -45h-73zM321 228h-21q-39 0 -71.5 -5.5t-56 -18.5t-37 -34t-13.5 -51q0 -19 7 -32t17.5 -21t23 -11.5t23.5 -3.5q27 0 48 8t36.5 19t26.5 22.5t17 19.5v108zM378 592q0 -23 -15.5 -38.5t-38.5 -15.5q-22 0 -37.5 15.5
t-15.5 38.5q0 22 15.5 37.5t37.5 15.5q23 0 38.5 -15.5t15.5 -37.5zM191 592q0 -23 -15.5 -38.5t-38.5 -15.5q-22 0 -37.5 15.5t-15.5 38.5q0 22 15.5 37.5t37.5 15.5q23 0 38.5 -15.5t15.5 -37.5z" />
    <glyph glyph-name="atilde" unicode="&#xe3;" horiz-adv-x="472" 
d="M332 0q-2 10 -4 28.5t-3 29.5q-8 -11 -21.5 -23t-31.5 -22.5t-41 -17.5t-50 -7q-60 0 -98.5 35t-38.5 94q0 48 23.5 79.5t61 50.5t82.5 27t89 8h21v45q0 46 -20 73t-76 27q-26 0 -46 -6t-35.5 -14.5t-26 -17t-17.5 -14.5l-39 51q9 8 23.5 19.5t35 22t48 17.5t62.5 7
q79 0 121.5 -38.5t42.5 -120.5v-224q0 -36 3 -64t8 -45h-73zM321 228h-21q-39 0 -71.5 -5.5t-56 -18.5t-37 -34t-13.5 -51q0 -19 7 -32t17.5 -21t23 -11.5t23.5 -3.5q27 0 48 8t36.5 19t26.5 22.5t17 19.5v108zM370 601q-8 -10 -17.5 -20.5t-21 -18.5t-25.5 -13.5t-32 -5.5
t-31.5 6t-25 13.5t-23 13.5t-26.5 6q-17 0 -29.5 -12.5l-19.5 -19.5l-39 37q7 9 16 19.5t20.5 19.5t26 15t31.5 6q19 0 32.5 -6t25 -13.5t23 -13.5t25.5 -6q20 0 32.5 11.5t18.5 19.5l39 -38v0z" />
    <glyph glyph-name="aring" unicode="&#xe5;" horiz-adv-x="472" 
d="M332 0q-2 10 -4 28.5t-3 29.5q-8 -11 -21.5 -23t-31.5 -22.5t-41 -17.5t-50 -7q-60 0 -98.5 35t-38.5 94q0 48 23.5 79.5t61 50.5t82.5 27t89 8h21v45q0 46 -20 73t-76 27q-26 0 -46 -6t-35.5 -14.5t-26 -17t-17.5 -14.5l-39 51q9 8 23.5 19.5t35 22t48 17.5t62.5 7
q79 0 121.5 -38.5t42.5 -120.5v-224q0 -36 3 -64t8 -45h-73zM321 228h-21q-39 0 -71.5 -5.5t-56 -18.5t-37 -34t-13.5 -51q0 -19 7 -32t17.5 -21t23 -11.5t23.5 -3.5q27 0 48 8t36.5 19t26.5 22.5t17 19.5v108zM329 640q0 -20 -8 -37.5t-21 -30t-30 -20t-36 -7.5t-36 7.5
t-30 20t-21 30t-8 37.5t8 37.5t21 30t30 20t36 7.5t36 -7.5t30 -20t21 -30t8 -37.5zM284 640q0 23 -13.5 39t-36.5 16t-36.5 -16t-13.5 -39q0 -22 13.5 -38.5t36.5 -16.5t36.5 16.5t13.5 38.5z" />
    <glyph glyph-name="ccedilla" unicode="&#xe7;" horiz-adv-x="440" 
d="M210 -7q-42 9 -73.5 32.5t-53 56.5t-32.5 73.5t-11 84.5q0 61 18 108.5t48 79t70 48t85 16.5q30 0 53 -5t41 -12.5t31 -15.5t22 -15l-35 -55q-19 14 -45 27t-68 13q-37 0 -64 -14.5t-44 -39.5t-25.5 -59.5t-8.5 -73.5q0 -38 8.5 -73t26 -61t44.5 -41.5t65 -15.5
q22 0 41.5 4.5t34.5 11t25.5 13.5t15.5 11l30 -55q-7 -6 -19.5 -14.5t-31.5 -16t-43.5 -12.5t-55.5 -5l-20 -54q31 -5 50.5 -23t19.5 -47q0 -41 -32.5 -62t-77.5 -21q-27 0 -42.5 4t-23.5 8l12 42q7 -4 20 -7.5t33 -3.5q23 0 36.5 9.5t13.5 29.5q0 14 -6 22t-16 12.5
t-23 5.5t-26 1l33 89v0z" />
    <glyph glyph-name="eacute" unicode="&#xe9;" horiz-adv-x="490" 
d="M118 242q1 -38 9.5 -73t26.5 -61t46 -41.5t69 -15.5q25 0 46 5t37.5 11.5t29 14t20.5 12.5l30 -57q-9 -6 -23.5 -14.5t-35 -16t-47 -13t-59.5 -5.5q-57 0 -99.5 20t-71 54.5t-42.5 81t-14 99.5t15.5 98.5t44 79t68.5 52.5t88 19t85.5 -18t61.5 -51t34.5 -79t5.5 -102
h-325v0zM370 300q-1 25 -7.5 48.5t-20 41.5t-35.5 28.5t-53 10.5q-58 0 -90 -36t-42 -93h248zM305 666h109l-135 -126h-66z" />
    <glyph glyph-name="egrave" unicode="&#xe8;" horiz-adv-x="490" 
d="M118 242q1 -38 9.5 -73t26.5 -61t46 -41.5t69 -15.5q25 0 46 5t37.5 11.5t29 14t20.5 12.5l30 -57q-9 -6 -23.5 -14.5t-35 -16t-47 -13t-59.5 -5.5q-57 0 -99.5 20t-71 54.5t-42.5 81t-14 99.5t15.5 98.5t44 79t68.5 52.5t88 19t85.5 -18t61.5 -51t34.5 -79t5.5 -102
h-325v0zM370 300q-1 25 -7.5 48.5t-20 41.5t-35.5 28.5t-53 10.5q-58 0 -90 -36t-42 -93h248zM250 540l-135 126h109l92 -126h-66z" />
    <glyph glyph-name="ecircumflex" unicode="&#xea;" horiz-adv-x="490" 
d="M118 242q1 -38 9.5 -73t26.5 -61t46 -41.5t69 -15.5q25 0 46 5t37.5 11.5t29 14t20.5 12.5l30 -57q-9 -6 -23.5 -14.5t-35 -16t-47 -13t-59.5 -5.5q-57 0 -99.5 20t-71 54.5t-42.5 81t-14 99.5t15.5 98.5t44 79t68.5 52.5t88 19t85.5 -18t61.5 -51t34.5 -79t5.5 -102
h-325v0zM370 300q-1 25 -7.5 48.5t-20 41.5t-35.5 28.5t-53 10.5q-58 0 -90 -36t-42 -93h248zM334 541l-81 85l-79 -85h-69l123 153h54l121 -153h-69z" />
    <glyph glyph-name="edieresis" unicode="&#xeb;" horiz-adv-x="490" 
d="M118 242q1 -38 9.5 -73t26.5 -61t46 -41.5t69 -15.5q25 0 46 5t37.5 11.5t29 14t20.5 12.5l30 -57q-9 -6 -23.5 -14.5t-35 -16t-47 -13t-59.5 -5.5q-57 0 -99.5 20t-71 54.5t-42.5 81t-14 99.5t15.5 98.5t44 79t68.5 52.5t88 19t85.5 -18t61.5 -51t34.5 -79t5.5 -102
h-325v0zM370 300q-1 25 -7.5 48.5t-20 41.5t-35.5 28.5t-53 10.5q-58 0 -90 -36t-42 -93h248zM398 592q0 -23 -15.5 -38.5t-38.5 -15.5q-22 0 -37.5 15.5t-15.5 38.5q0 22 15.5 37.5t37.5 15.5q23 0 38.5 -15.5t15.5 -37.5zM211 592q0 -23 -15.5 -38.5t-38.5 -15.5
q-22 0 -37.5 15.5t-15.5 38.5q0 22 15.5 37.5t37.5 15.5q23 0 38.5 -15.5t15.5 -37.5z" />
    <glyph glyph-name="iacute" unicode="&#xed;" horiz-adv-x="250" 
d="M88 0v480h74v-480h-74zM175 666h109l-135 -126h-66z" />
    <glyph glyph-name="igrave" unicode="&#xec;" horiz-adv-x="250" 
d="M88 0v480h74v-480h-74zM110 540l-135 126h109l92 -126h-66z" />
    <glyph glyph-name="icircumflex" unicode="&#xee;" horiz-adv-x="250" 
d="M88 0v480h74v-480h-74zM207 541l-81 85l-79 -85h-69l123 153h54l121 -153h-69z" />
    <glyph glyph-name="idieresis" unicode="&#xef;" horiz-adv-x="250" 
d="M88 0v480h74v-480h-74zM274 592q0 -23 -15.5 -38.5t-38.5 -15.5q-22 0 -37.5 15.5t-15.5 38.5q0 22 15.5 37.5t37.5 15.5q23 0 38.5 -15.5t15.5 -37.5zM87 592q0 -23 -15.5 -38.5t-38.5 -15.5q-22 0 -37.5 15.5t-15.5 38.5q0 22 15.5 37.5t37.5 15.5q23 0 38.5 -15.5
t15.5 -37.5z" />
    <glyph glyph-name="ntilde" unicode="&#xf1;" horiz-adv-x="530" 
d="M379 0v328q0 45 -18.5 71.5t-66.5 26.5q-28 0 -51.5 -12t-42 -27t-30 -29.5t-15.5 -19.5v-338h-73v480h73v-69q8 10 21.5 24t33 26.5t44.5 21.5t57 9q38 0 64.5 -12t43.5 -32t25 -47.5t8 -58.5v-342h-73zM402 601q-8 -10 -17.5 -20.5t-21 -18.5t-25.5 -13.5t-32 -5.5
t-31.5 6t-25 13.5t-23 13.5t-26.5 6q-17 0 -29.5 -12.5l-19.5 -19.5l-39 37q7 9 16 19.5t20.5 19.5t26 15t31.5 6q19 0 32.5 -6t25 -13.5t23 -13.5t25.5 -6q20 0 32.5 11.5t18.5 19.5l39 -38v0z" />
    <glyph glyph-name="oacute" unicode="&#xf3;" horiz-adv-x="528" 
d="M488 241q0 -42 -12.5 -87t-39.5 -81.5t-70 -60.5t-104 -24t-103 23.5t-68.5 60t-38.5 81t-12 86.5t11.5 87t37.5 81.5t67.5 60.5t102.5 24t104 -23.5t71 -60t41 -81t13 -86.5zM410 239q0 39 -9.5 73.5t-29 60.5t-48 41t-65.5 15q-38 0 -64.5 -15t-43 -40.5t-24.5 -59.5
t-8 -73t8.5 -73.5t26.5 -60.5t45 -41t65 -15q37 0 65 15t46 40.5t27 59.5t9 73zM318 666h109l-135 -126h-66z" />
    <glyph glyph-name="ograve" unicode="&#xf2;" horiz-adv-x="528" 
d="M488 241q0 -42 -12.5 -87t-39.5 -81.5t-70 -60.5t-104 -24t-103 23.5t-68.5 60t-38.5 81t-12 86.5t11.5 87t37.5 81.5t67.5 60.5t102.5 24t104 -23.5t71 -60t41 -81t13 -86.5zM410 239q0 39 -9.5 73.5t-29 60.5t-48 41t-65.5 15q-38 0 -64.5 -15t-43 -40.5t-24.5 -59.5
t-8 -73t8.5 -73.5t26.5 -60.5t45 -41t65 -15q37 0 65 15t46 40.5t27 59.5t9 73zM246 540l-135 126h109l92 -126h-66z" />
    <glyph glyph-name="ocircumflex" unicode="&#xf4;" horiz-adv-x="528" 
d="M488 241q0 -42 -12.5 -87t-39.5 -81.5t-70 -60.5t-104 -24t-103 23.5t-68.5 60t-38.5 81t-12 86.5t11.5 87t37.5 81.5t67.5 60.5t102.5 24t104 -23.5t71 -60t41 -81t13 -86.5zM410 239q0 39 -9.5 73.5t-29 60.5t-48 41t-65.5 15q-38 0 -64.5 -15t-43 -40.5t-24.5 -59.5
t-8 -73t8.5 -73.5t26.5 -60.5t45 -41t65 -15q37 0 65 15t46 40.5t27 59.5t9 73zM342 541l-81 85l-79 -85h-69l123 153h54l121 -153h-69z" />
    <glyph glyph-name="odieresis" unicode="&#xf6;" horiz-adv-x="528" 
d="M488 241q0 -42 -12.5 -87t-39.5 -81.5t-70 -60.5t-104 -24t-103 23.5t-68.5 60t-38.5 81t-12 86.5t11.5 87t37.5 81.5t67.5 60.5t102.5 24t104 -23.5t71 -60t41 -81t13 -86.5zM410 239q0 39 -9.5 73.5t-29 60.5t-48 41t-65.5 15q-38 0 -64.5 -15t-43 -40.5t-24.5 -59.5
t-8 -73t8.5 -73.5t26.5 -60.5t45 -41t65 -15q37 0 65 15t46 40.5t27 59.5t9 73zM406 592q0 -23 -15.5 -38.5t-38.5 -15.5q-22 0 -37.5 15.5t-15.5 38.5q0 22 15.5 37.5t37.5 15.5q23 0 38.5 -15.5t15.5 -37.5zM219 592q0 -23 -15.5 -38.5t-38.5 -15.5q-22 0 -37.5 15.5
t-15.5 38.5q0 22 15.5 37.5t37.5 15.5q23 0 38.5 -15.5t15.5 -37.5z" />
    <glyph glyph-name="otilde" unicode="&#xf5;" horiz-adv-x="528" 
d="M488 241q0 -42 -12.5 -87t-39.5 -81.5t-70 -60.5t-104 -24t-103 23.5t-68.5 60t-38.5 81t-12 86.5t11.5 87t37.5 81.5t67.5 60.5t102.5 24t104 -23.5t71 -60t41 -81t13 -86.5zM410 239q0 39 -9.5 73.5t-29 60.5t-48 41t-65.5 15q-38 0 -64.5 -15t-43 -40.5t-24.5 -59.5
t-8 -73t8.5 -73.5t26.5 -60.5t45 -41t65 -15q37 0 65 15t46 40.5t27 59.5t9 73zM403 601q-8 -10 -17.5 -20.5t-21 -18.5t-25.5 -13.5t-32 -5.5t-31.5 6t-25 13.5t-23 13.5t-26.5 6q-17 0 -29.5 -12.5l-19.5 -19.5l-39 37q7 9 16 19.5t20.5 19.5t26 15t31.5 6q19 0 32.5 -6
t25 -13.5t23 -13.5t25.5 -6q20 0 32.5 11.5t18.5 19.5l39 -38v0z" />
    <glyph glyph-name="uacute" unicode="&#xfa;" horiz-adv-x="528" 
d="M149 480v-328q0 -45 18.5 -71.5t67.5 -26.5q27 0 51 12t42 27t29.5 29.5t15.5 19.5v338h73v-379q0 -31 3 -59t6 -42h-74q-2 9 -4 31t-3 40q-8 -11 -22 -25.5t-33.5 -27.5t-44.5 -21.5t-56 -8.5q-38 0 -65 12t-44 32t-25 47.5t-8 58.5v342h73zM298 666h109l-135 -126h-66z
" />
    <glyph glyph-name="ugrave" unicode="&#xf9;" horiz-adv-x="528" 
d="M149 480v-328q0 -45 18.5 -71.5t67.5 -26.5q27 0 51 12t42 27t29.5 29.5t15.5 19.5v338h73v-379q0 -31 3 -59t6 -42h-74q-2 9 -4 31t-3 40q-8 -11 -22 -25.5t-33.5 -27.5t-44.5 -21.5t-56 -8.5q-38 0 -65 12t-44 32t-25 47.5t-8 58.5v342h73zM255 540l-135 126h109
l92 -126h-66z" />
    <glyph glyph-name="ucircumflex" unicode="&#xfb;" horiz-adv-x="528" 
d="M149 480v-328q0 -45 18.5 -71.5t67.5 -26.5q27 0 51 12t42 27t29.5 29.5t15.5 19.5v338h73v-379q0 -31 3 -59t6 -42h-74q-2 9 -4 31t-3 40q-8 -11 -22 -25.5t-33.5 -27.5t-44.5 -21.5t-56 -8.5q-38 0 -65 12t-44 32t-25 47.5t-8 58.5v342h73zM345 541l-81 85l-79 -85h-69
l123 153h54l121 -153h-69z" />
    <glyph glyph-name="udieresis" unicode="&#xfc;" horiz-adv-x="528" 
d="M149 480v-328q0 -45 18.5 -71.5t67.5 -26.5q27 0 51 12t42 27t29.5 29.5t15.5 19.5v338h73v-379q0 -31 3 -59t6 -42h-74q-2 9 -4 31t-3 40q-8 -11 -22 -25.5t-33.5 -27.5t-44.5 -21.5t-56 -8.5q-38 0 -65 12t-44 32t-25 47.5t-8 58.5v342h73zM412 592q0 -23 -15.5 -38.5
t-38.5 -15.5q-22 0 -37.5 15.5t-15.5 38.5q0 22 15.5 37.5t37.5 15.5q23 0 38.5 -15.5t15.5 -37.5zM225 592q0 -23 -15.5 -38.5t-38.5 -15.5q-22 0 -37.5 15.5t-15.5 38.5q0 22 15.5 37.5t37.5 15.5q23 0 38.5 -15.5t15.5 -37.5z" />
    <glyph glyph-name="dagger" unicode="&#x2020;" horiz-adv-x="543" 
d="M491 410h-110l-82 8l15 -142l-18 -446h-49l-19 446l16 142l-82 -8h-110v70h110l82 -8l-13 111v137h81v-137l-13 -111l82 8h110v-70z" />
    <glyph glyph-name="degree" unicode="&#xb0;" horiz-adv-x="346" 
d="M304 548q0 -27 -10 -50.5t-28 -41t-42 -28t-51 -10.5t-51 10.5t-41.5 28t-28 41t-10.5 50.5t10.5 50.5t28 41t41.5 28t51 10.5t51 -10.5t41.5 -28t28 -41t10.5 -50.5zM249 548q0 32 -21.5 55.5t-54.5 23.5t-54.5 -23.5t-21.5 -55.5q0 -33 21.5 -56t54.5 -23t54.5 23
t21.5 56z" />
    <glyph glyph-name="cent" unicode="&#xa2;" horiz-adv-x="440" 
d="M284 491q49 -4 78.5 -19.5t45.5 -27.5l-35 -55q-19 14 -45 27t-68 13q-37 0 -64 -14.5t-44 -39.5t-25.5 -59.5t-8.5 -73.5q0 -38 8.5 -73t26 -61t44.5 -41.5t65 -15.5q22 0 41.5 4.5t34.5 11t25.5 13.5t15.5 11l30 -55q-13 -11 -43.5 -26.5t-81.5 -20.5v-112h-71v115
q-43 9 -75.5 32t-54 56.5t-32.5 74.5t-11 85q0 53 13.5 95t36.5 73.5t55 51t68 27.5v106h71v-102v0z" />
    <glyph glyph-name="sterling" unicode="&#xa3;" horiz-adv-x="468" 
d="M375 356v-59h-144q1 -13 1.5 -25t0.5 -24q0 -38 -7.5 -68.5t-19 -53.5t-24.5 -39t-24 -25h258v-62h-362v49q29 16 49.5 39.5t33 50t18.5 54.5t6 52q0 12 -1 25t-3 27h-96v59h88q-5 32 -8.5 66.5t-3.5 71.5q0 40 10.5 73.5t32.5 58t56 38.5t81 14q45 0 73.5 -11.5
t46.5 -22.5l-33 -56q-14 9 -36.5 17.5t-60.5 8.5q-51 0 -72.5 -34t-21.5 -88q0 -32 3.5 -66.5t7.5 -69.5h151z" />
    <glyph glyph-name="section" unicode="&#xa7;" horiz-adv-x="468" 
d="M398 216q0 -23 -7 -42.5t-17.5 -35.5t-22 -28t-20.5 -20q12 -20 21 -43.5t9 -46.5q0 -40 -13.5 -69t-35.5 -47.5t-50 -27t-57 -8.5q-40 0 -69 11t-46 22l32 56q14 -8 34 -16.5t49 -8.5q45 0 65 24t20 59q0 27 -16.5 54.5t-41 56t-53.5 58.5t-53.5 62t-41 66.5t-16.5 71.5
q0 23 6.5 42.5t16.5 35t22 27t23 19.5q-12 17 -22 40.5t-10 52.5q0 37 14 65.5t36 47.5t49.5 28.5t54.5 9.5q45 0 72.5 -11t44.5 -24l-35 -56q-12 8 -29.5 18t-52.5 10q-22 0 -37.5 -7.5t-25.5 -19.5t-15 -26.5t-5 -29.5q0 -27 16.5 -54.5t41.5 -56.5t53.5 -59t53.5 -62
t41.5 -66.5t16.5 -71.5zM327 216q0 26 -18 57t-43 61.5t-51.5 58t-42.5 46.5q-15 -11 -23.5 -28t-8.5 -47q0 -25 18 -55.5t42.5 -61.5t50.5 -59t42 -47q15 14 24.5 31.5t9.5 43.5z" />
    <glyph glyph-name="bullet" unicode="&#x2022;" horiz-adv-x="362" 
d="M306 286q0 -26 -10 -48.5t-27 -39.5t-39.5 -26.5t-48.5 -9.5t-48.5 9.5t-39.5 26.5t-27 39.5t-10 48.5t10 48.5t27 39.5t39.5 27t48.5 10t48.5 -10t39.5 -27t27 -39.5t10 -48.5z" />
    <glyph glyph-name="paragraph" unicode="&#xb6;" horiz-adv-x="644" 
d="M499 603v-780h-67v780h-104v-780h-68v451q-40 0 -75.5 13.5t-62 39t-42 61.5t-15.5 81t15.5 81t41.5 62t61.5 40t76.5 14h319v-63h-80z" />
    <glyph glyph-name="germandbls" unicode="&#xdf;" horiz-adv-x="547" 
d="M507 130q0 -65 -43 -103.5t-126 -38.5q-49 0 -78 11.5t-44 22.5l31 59q14 -8 36.5 -19t57.5 -11q41 0 66.5 17.5t25.5 53.5q0 19 -7.5 33t-21 26t-32.5 23t-41 23q-18 10 -36 21t-31.5 25t-22 31.5t-8.5 40.5q0 26 9.5 45t24 34t32.5 27.5t35 25.5q25 19 39 39.5t14 54.5
q0 44 -24.5 70t-79.5 26q-53 0 -88.5 -41.5t-35.5 -131.5v-494h-73v496q0 60 15.5 104t42 73.5t63 44t78.5 14.5q44 0 77 -12.5t55 -33.5t33 -49.5t11 -59.5q0 -30 -8 -52.5t-21 -39.5t-29.5 -30.5t-32.5 -25.5q-30 -21 -48.5 -37t-18.5 -39q0 -12 4 -20.5t13.5 -16.5
t25 -17t38.5 -22q22 -12 44 -26t39.5 -31t28.5 -39t11 -51z" />
    <glyph glyph-name="registered" unicode="&#xae;" horiz-adv-x="865" 
d="M805 359q0 -77 -29.5 -145t-80 -118.5t-118.5 -80t-145 -29.5t-144.5 29.5t-118 80t-80 118.5t-29.5 145t29.5 145t80 118.5t118 80t144.5 29.5t145 -29.5t118.5 -80t80 -118.5t29.5 -145zM749 359q0 70 -24 128.5t-66.5 101.5t-100.5 67t-126 24t-126 -24t-100 -67
t-66 -101.5t-24 -128.5t24 -129t66 -101.5t100 -66.5t126 -24t126 24t100.5 66.5t66.5 101.5t24 129zM542 136l-109 159q-17 25 -31 34.5t-40 9.5v-203h-65v452h147q34 0 60.5 -10.5t43.5 -28t26 -40.5t9 -48q0 -50 -31.5 -79.5t-88.5 -37.5q15 -11 27 -25t26 -34l105 -149
h-79zM513 461q0 32 -18.5 51.5t-65.5 19.5h-67v-142h46q19 0 38 2t34 9t24 21.5t9 38.5z" />
    <glyph glyph-name="copyright" unicode="&#xa9;" horiz-adv-x="865" 
d="M805 359q0 -77 -29.5 -145t-80 -118.5t-118.5 -80t-145 -29.5t-144.5 29.5t-118 80t-80 118.5t-29.5 145t29.5 145t80 118.5t118 80t144.5 29.5t145 -29.5t118.5 -80t80 -118.5t29.5 -145zM749 359q0 70 -24 128.5t-66.5 101.5t-100.5 67t-126 24t-126 -24t-100 -67
t-66 -101.5t-24 -128.5t24 -129t66 -101.5t100 -66.5t126 -24t126 24t100.5 66.5t66.5 101.5t24 129zM591 179q-25 -20 -60.5 -36t-90.5 -16q-50 0 -92 18.5t-72.5 50t-47.5 74t-17 89.5q0 49 17.5 91t48.5 73.5t73 49.5t90 18q53 0 84.5 -15t56.5 -35l-38 -48
q-16 14 -39.5 26.5t-64.5 12.5q-40 0 -69 -15.5t-48.5 -40t-29 -55t-9.5 -60.5q0 -36 12.5 -68t34 -56t51 -37.5t63.5 -13.5q44 0 71.5 15t44.5 29l31 -51v0z" />
    <glyph glyph-name="trademark" unicode="&#x2122;" horiz-adv-x="714" 
d="M565 666h61l32 -291h-53l-16 165q-2 10 -2 21.5t-1 20.5q-1 11 -1 21h-2q-2 -10 -5 -21q-2 -10 -6.5 -22.5t-9.5 -26.5l-64 -158h-46l-59 150q-5 13 -9.5 27t-7.5 25q-4 13 -7 26h-2q0 -8 -1 -19q-1 -9 -1.5 -20.5t-1.5 -25.5l-14 -163h-49l31 291h60l67 -171
q9 -23 14 -39q3 -9 5 -17h2q2 7 5 16q2 8 5.5 18t8.5 23zM180 375h-54v246h-83v45h221v-45h-84v-246z" />
    <glyph glyph-name="acute" unicode="&#xb4;" horiz-adv-x="500" 
d="M241 666h109l-135 -126h-66z" />
    <glyph glyph-name="dieresis" unicode="&#xa8;" horiz-adv-x="500" 
d="M397 592q0 -23 -15.5 -38.5t-38.5 -15.5q-22 0 -37.5 15.5t-15.5 38.5q0 22 15.5 37.5t37.5 15.5q23 0 38.5 -15.5t15.5 -37.5zM210 592q0 -23 -15.5 -38.5t-38.5 -15.5q-22 0 -37.5 15.5t-15.5 38.5q0 22 15.5 37.5t37.5 15.5q23 0 38.5 -15.5t15.5 -37.5z" />
    <glyph glyph-name="notequal" horiz-adv-x="586" 
d="M177 0h-73v422h-84v58h84v62q0 40 12.5 74t36 58t58 37.5t78.5 13.5q54 0 83.5 -13t46.5 -25q23 22 53.5 33.5t71.5 11.5q35 0 54.5 -5t25.5 -8l-19 -63q-5 2 -21 7t-42 5q-100 0 -100 -122v-66h122v-58h-122v-422h-73v422h-192v-422zM382 630q-11 9 -33.5 20t-61.5 11
q-51 0 -80.5 -31.5t-29.5 -107.5v-42h192v71q0 46 13 79z" />
    <glyph glyph-name="AE" unicode="&#xc6;" horiz-adv-x="815" 
d="M70 0h-85l383 666h382v-66h-264v-214h232v-66h-232v-254h271v-66h-349v182h-236zM408 602l-199 -355h199v355z" />
    <glyph glyph-name="Oslash" unicode="&#xd8;" horiz-adv-x="760" 
d="M177 56q-60 48 -92 120.5t-32 155.5q0 69 22 131.5t64 110t102.5 76t137.5 28.5q54 0 99 -13.5t82 -38.5l64 95l44 -33l-65 -96q51 -48 77.5 -115.5t26.5 -142.5q0 -69 -22 -131.5t-64 -110t-102.5 -76t-137.5 -28.5q-46 0 -85.5 10t-73.5 29l-62 -92l-43 31l60 90v0z
M524 570q-29 21 -64.5 32.5t-78.5 11.5q-60 0 -106.5 -22.5t-78 -61t-47.5 -89t-16 -107.5q0 -68 21 -125.5t63 -96.5zM258 82q26 -14 56 -22t65 -8q60 0 106 22.5t77.5 61t48 89t16.5 107.5q0 60 -16.5 112t-48.5 90z" />
    <glyph glyph-name="infinity" horiz-adv-x="799" 
d="M177 0h-73v422h-84v58h84v62q0 40 12.5 74t36 58t58 37.5t78.5 13.5q56 0 86 -14t47 -26q50 47 135 47q31 0 54.5 -4.5t42 -11t32.5 -15t25 -15.5l-37 -58q-17 12 -46 26t-74 14q-54 0 -83 -32t-29 -95v-61h269v-480h-73v422h-196v-422h-73v422h-192v-422zM384 628
q-11 9 -33.5 21t-63.5 12q-51 0 -80.5 -31.5t-29.5 -107.5v-42h192v68q0 44 15 80z" />
    <glyph glyph-name="plusminus" unicode="&#xb1;" horiz-adv-x="813" 
d="M420 686q52 46 136 46q62 0 104.5 -8t66.5 -16v-708h-73v655q-11 4 -37.5 8.5t-64.5 4.5q-58 0 -84 -33t-26 -93v-62h123v-58h-123v-422h-73v422h-192v-422h-73v422h-84v58h84v62q0 40 12.5 74t36 58t58 37.5t78.5 13.5q54 0 84 -13.5t47 -25.5zM369 552q0 22 3.5 41
t9.5 36q-11 10 -33 21t-62 11q-51 0 -80.5 -31.5t-29.5 -107.5v-42h192v72z" />
    <glyph glyph-name="lessequal" 
d="M1007 -217h-937v937h937v-937zM145 -142h787v787h-787v-787zM652 509h79l-202 -239l215 -270h-85q-59 73 -105 131q-20 25 -39 48t-33 42q-18 21 -32 41v-262h-68v509h68v-242z" />
    <glyph glyph-name="greaterequal" 
d="M1007 -217h-937v937h937v-937zM145 -142h787v787h-787v-787zM652 509h79l-202 -239l215 -270h-85q-59 73 -105 131q-20 25 -39 48t-33 42q-18 21 -32 41v-262h-68v509h68v-242z" />
    <glyph glyph-name="yen" unicode="&#xa5;" horiz-adv-x="520" 
d="M302 0h-76v95h-161v59h161v71h-161v59h143l-206 382h87l177 -340h2l178 340h75l-202 -382h144v-59h-161v-71h161v-59h-161v-95z" />
    <glyph glyph-name="mu" unicode="&#xb5;" horiz-adv-x="547" 
d="M382 0q-1 4 -2 12t-2 17.5t-2 20t-1 19.5q-9 -10 -23.5 -24t-34 -26.5t-44.5 -21.5t-56 -9q-19 0 -36.5 4.5t-30.5 12.5h-2q1 -9 1.5 -22.5t1 -28.5t0.5 -31v-29v-101h-73v687h73v-336q0 -17 2.5 -33.5t10.5 -29t22 -20t38 -7.5q25 0 48 9t42.5 22t34.5 28t26 28v339h73
v-384q0 -12 0.5 -26t1.5 -27.5t2.5 -25t2.5 -17.5h-73z" />
    <glyph glyph-name="partialdiff" 
d="M1007 -217h-937v937h937v-937zM145 -142h787v787h-787v-787zM604 125q0 -68 -31 -104t-91 -36q-18 0 -31 3t-18 6l11 60q4 -2 12 -4.5t18 -2.5q32 0 46.5 21t14.5 67v374h69v-384v0z" />
    <glyph glyph-name="summation" 
d="M1007 -217h-937v937h937v-937zM145 -142h787v787h-787v-787zM652 509h79l-202 -239l215 -270h-85q-59 73 -105 131q-20 25 -39 48t-33 42q-18 21 -32 41v-262h-68v509h68v-242z" />
    <glyph glyph-name="product" 
d="M1007 -217h-937v937h937v-937zM145 -142h787v787h-787v-787zM652 509h79l-202 -239l215 -270h-85q-59 73 -105 131q-20 25 -39 48t-33 42q-18 21 -32 41v-262h-68v509h68v-242z" />
    <glyph glyph-name="pi" horiz-adv-x="865" 
d="M805 359q0 -77 -29.5 -145t-80 -118.5t-118.5 -80t-145 -29.5t-144.5 29.5t-118 80t-80 118.5t-29.5 145t29.5 145t80 118.5t118 80t144.5 29.5t145 -29.5t118.5 -80t80 -118.5t29.5 -145zM749 359q0 70 -24 128.5t-66.5 101.5t-100.5 67t-126 24t-126 -24t-100 -67
t-66 -101.5t-24 -128.5t24 -129t66 -101.5t100 -66.5t126 -24t126 24t100.5 66.5t66.5 101.5t24 129zM375 136h-65v452h147q34 0 60 -11.5t43.5 -30.5t26.5 -43.5t9 -49.5q0 -26 -9.5 -50t-29.5 -43t-52 -30t-77 -11h-53v-183zM526 451q0 40 -19.5 60.5t-64.5 20.5h-67v-162
h49q50 0 76 19.5t26 61.5z" />
    <glyph glyph-name="integral" horiz-adv-x="1031" 
d="M1007 -218h-937v937h937v-937zM145 -143h787v787h-787v-787zM320 -1l195 509h68l196 -509h-76l-44 119h-226l-44 -119h-69zM578 340q-6 16 -11.5 32t-10.5 29q-5 15 -9 28h-2q-5 -13 -9 -28q-5 -13 -10 -29t-11 -32l-61 -164h184l-60 164v0z" />
    <glyph glyph-name="ordfeminine" unicode="&#xaa;" horiz-adv-x="361" 
d="M238 323q-3 17 -5 35q-14 -15 -38 -29t-56 -14q-22 0 -41 7t-33.5 20t-22.5 30.5t-8 38.5q0 26 10 45.5t26 33.5q28 23 70.5 31.5t90.5 8.5v27q0 32 -14 50t-51 18q-32 0 -53 -12.5t-34 -22.5l-33 42q14 12 44.5 29t78.5 17q58 0 90 -28t32 -88v-157q0 -25 2.5 -45.5
t6.5 -36.5h-62v0zM231 484q-42 0 -72 -5.5t-48 -25.5q-14 -15 -14 -40q0 -22 14.5 -34t35.5 -12q17 0 30.5 5t24 12t17.5 14.5t12 12.5v73v0z" />
    <glyph glyph-name="ordmasculine" unicode="&#xba;" horiz-adv-x="393" 
d="M195 315q-43 0 -73 16t-49.5 41.5t-28.5 58t-9 65.5t8.5 66t27.5 59t49 42t73 16t74 -16t51 -41.5t30 -58t10 -65.5t-9.5 -66t-29.5 -59t-50.5 -42t-73.5 -16zM192 626q-50 0 -70 -35.5t-20 -92.5t22 -94t72 -37q51 0 72.5 36t21.5 93t-23.5 93.5t-74.5 36.5z" />
    <glyph glyph-name="Omega" 
d="M1007 -217h-937v937h937v-937zM145 -142h787v787h-787v-787zM652 509h79l-202 -239l215 -270h-85q-59 73 -105 131q-20 25 -39 48t-33 42q-18 21 -32 41v-262h-68v509h68v-242z" />
    <glyph glyph-name="ae" unicode="&#xe6;" horiz-adv-x="770" 
d="M376 414q29 36 69.5 57t90.5 21q48 0 85.5 -18.5t61.5 -51.5t34.5 -79t5.5 -101h-325q1 -38 9.5 -73t26.5 -61t46 -41.5t69 -15.5q25 0 46 5t37.5 11.5t29 14t20.5 12.5l30 -57q-9 -6 -23.5 -14.5t-35 -16t-47 -13t-59.5 -5.5q-63 0 -108.5 26t-74.5 70q-15 -19 -34 -36
t-42 -30.5t-49.5 -21.5t-57.5 -8q-60 0 -98.5 35t-38.5 94q0 48 23.5 79.5t61 50.5t82.5 27t89 8h22v45q0 46 -20.5 73t-76.5 27q-26 0 -46 -6t-35.5 -14.5t-26 -17t-17.5 -14.5l-39 51q9 8 23.5 19.5t35 22t48 17.5t62.5 7q54 0 90.5 -18.5t55.5 -59.5zM650 300
q-1 25 -7.5 48.5t-20 41.5t-35.5 28.5t-53 10.5q-58 0 -90 -36t-42 -93h248zM300 228q-39 0 -71.5 -5.5t-56 -18.5t-37 -34t-13.5 -51q0 -19 7 -32t17.5 -21t23 -11.5t23.5 -3.5q53 0 88 25.5t57 59.5q-15 45 -18 92h-20z" />
    <glyph glyph-name="oslash" unicode="&#xf8;" horiz-adv-x="528" 
d="M104 55q-34 38 -49 87.5t-15 96.5q0 42 11.5 87t37.5 81.5t67.5 60.5t102.5 24q34 0 62.5 -7.5t51.5 -21.5l58 88l42 -29l-60 -90q39 -38 57 -89.5t18 -101.5q0 -42 -12.5 -87t-39.5 -81.5t-70 -60.5t-104 -24q-38 0 -68 9t-54 26l-52 -78l-39 27l55 83v0zM338 409
q-33 22 -80 22q-38 0 -65 -15t-44 -41t-25 -60.5t-8 -73.5q0 -37 7 -69t21 -58zM175 78q34 -29 88 -29q38 0 66 15t46.5 41t27.5 60.5t9 73.5q0 40 -9 75t-29 61z" />
    <glyph glyph-name="questiondown" unicode="&#xbf;" horiz-adv-x="400" 
d="M203 435q0 24 17 40.5t40 16.5t40 -16.5t17 -40.5q0 -23 -17 -39.5t-40 -16.5t-40 16.5t-17 39.5zM50 -24q0 39 13 68t32 50t41 35.5t40 25.5q30 18 40 35t10 46v55h71v-63q0 -39 -14.5 -66.5t-59.5 -54.5q-20 -12 -37.5 -23.5t-30 -26t-20 -33t-7.5 -44.5
q0 -57 33 -83.5t90 -26.5q24 0 46 7t36 14l27 -58q-18 -9 -47.5 -18t-66.5 -9q-48 0 -85 13t-61.5 35.5t-37 53.5t-12.5 68z" />
    <glyph glyph-name="exclamdown" unicode="&#xa1;" horiz-adv-x="275" 
d="M81 435q0 24 17 40.5t40 16.5t40 -16.5t17 -40.5q0 -23 -17 -39.5t-40 -16.5t-40 16.5t-17 39.5zM109 285h58l16 -467h-90z" />
    <glyph glyph-name="logicalnot" unicode="&#xac;" 
d="M1007 -217h-937v937h937v-937zM145 -142h787v787h-787v-787zM504 0l-117 317l-24 68h-2l-2 -22q-1 -10 -2 -23t-3 -26l-39 -314h-63l69 509h66l121 -336q6 -17 11 -32.5t10 -29.5l10 -30h2q4 14 9 30q4 14 9.5 29.5t11.5 32.5l123 336h66l69 -509h-71l-41 314
q-2 13 -3 26t-3 23q-2 11 -3 22h-2q-2 -10 -6 -21q-3 -10 -6.5 -22t-8.5 -25l-115 -317h-66z" />
    <glyph glyph-name="radical" horiz-adv-x="571" 
d="M307 0h-70l-187 480h76l145 -389h2l198 629h75z" />
    <glyph glyph-name="florin" unicode="&#x192;" horiz-adv-x="435" 
d="M194 555q10 85 57 131t132 46q39 0 65 -9t43 -20l-29 -59q-11 8 -34.5 16t-53.5 8q-29 0 -49 -9.5t-32.5 -26.5t-20 -42t-10.5 -55l-12 -109h112l-10 -58h-108l-41 -368q-5 -40 -17.5 -74.5t-34 -59.5t-53.5 -39.5t-75 -14.5q-35 0 -55 6t-33 14l23 59q8 -4 21.5 -9.5
t36.5 -5.5q30 0 51 11t34.5 29.5t21 42.5t10.5 50l40 359h-103l8 58h102z" />
    <glyph glyph-name="approxequal" 
d="M1007 -217h-937v937h937v-937zM145 -142h787v787h-787v-787zM652 509h79l-202 -239l215 -270h-85q-59 73 -105 131q-20 25 -39 48t-33 42q-18 21 -32 41v-262h-68v509h68v-242z" />
    <glyph glyph-name="Delta" horiz-adv-x="537" 
d="M449 -64q0 -37 -7.5 -67.5t-24 -52.5t-42.5 -34t-63 -12q-25 0 -37 2.5t-15 4.5l12 61q4 -2 11.5 -3.5t22.5 -1.5q40 0 55 30.5t15 85.5v473h-203v-422h-73v422h-80v58h80v68q0 40 12.5 74t36.5 58.5t59 38t80 13.5q31 0 54.5 -4.5t42 -11t32.5 -15t25 -15.5l-37 -58
q-17 12 -46 26t-74 14q-54 0 -83 -32t-29 -95v-61h276v-544v0z" />
    <glyph glyph-name="guillemotleft" unicode="&#xab;" horiz-adv-x="476" 
d="M356 56l-133 189l133 190h77l-132 -190l132 -189h-77zM178 56l-133 189l133 190h77l-132 -190l132 -189h-77z" />
    <glyph glyph-name="guillemotright" unicode="&#xbb;" horiz-adv-x="476" 
d="M297 56h-76l132 189l-132 190h76l134 -190zM119 56h-76l132 189l-132 190h76l134 -190z" />
    <glyph glyph-name="ellipsis" unicode="&#x2026;" horiz-adv-x="621" 
d="M571 51q0 -25 -17.5 -42.5t-42.5 -17.5t-42.5 17.5t-17.5 42.5t17.5 42t42.5 17t42.5 -17t17.5 -42zM370 51q0 -25 -17 -42.5t-43 -17.5q-25 0 -42 17.5t-17 42.5t17 42t42 17q26 0 43 -17t17 -42zM170 51q0 -25 -17.5 -42.5t-42.5 -17.5q-26 0 -43 17.5t-17 42.5t17 42
t43 17q25 0 42.5 -17t17.5 -42z" />
    <glyph glyph-name="nonbreakingspace" horiz-adv-x="253" 
 />
    <glyph glyph-name="Agrave" unicode="&#xc0;" horiz-adv-x="627" 
d="M98 0h-77l255 666h76l256 -666h-85l-61 165h-303zM395 345l-42 114q-8 21 -15 41t-13 37q-7 19 -13 37h-2q-6 -18 -13 -37q-6 -17 -13 -37.5t-15 -40.5l-85 -228h253zM303 720l-135 126h109l92 -126h-66z" />
    <glyph glyph-name="Atilde" unicode="&#xc3;" horiz-adv-x="627" 
d="M98 0h-77l255 666h76l256 -666h-85l-61 165h-303zM395 345l-42 114q-8 21 -15 41t-13 37q-7 19 -13 37h-2q-6 -18 -13 -37q-6 -17 -13 -37.5t-15 -40.5l-85 -228h253zM453 781q-8 -10 -17.5 -20.5t-21 -18.5t-25.5 -13.5t-32 -5.5t-31.5 6t-25 13.5t-23 13.5t-26.5 6
q-17 0 -29.5 -12.5l-19.5 -19.5l-39 37q7 9 16 19.5t20.5 19.5t26 15t31.5 6q19 0 32.5 -6t25 -13.5t23 -13.5t25.5 -6q20 0 32.5 11.5t18.5 19.5l39 -38v0z" />
    <glyph glyph-name="Otilde" unicode="&#xd5;" horiz-adv-x="760" 
d="M707 334q0 -69 -22 -131.5t-64 -110t-102.5 -76t-137.5 -28.5t-138 28t-103 75.5t-64.5 109.5t-22.5 131t22 131.5t64 110t102.5 76t137.5 28.5t138 -28t103 -75.5t64.5 -109.5t22.5 -131zM625 332q0 56 -16 107t-46.5 89.5t-76 61.5t-105.5 23t-105.5 -22.5t-77 -61
t-47.5 -89t-16 -106.5t16 -107t46.5 -89.5t76 -61.5t105.5 -23t105.5 22.5t77 60.5t47.5 89t16 107zM525 781q-8 -10 -17.5 -20.5t-21 -18.5t-25.5 -13.5t-32 -5.5t-31.5 6t-25 13.5t-23 13.5t-26.5 6q-17 0 -29.5 -12.5l-19.5 -19.5l-39 37q7 9 16 19.5t20.5 19.5t26 15
t31.5 6q19 0 32.5 -6t25 -13.5t23 -13.5t25.5 -6q20 0 32.5 11.5t18.5 19.5l39 -38v0z" />
    <glyph glyph-name="OE" unicode="&#x152;" horiz-adv-x="885" 
d="M820 666v-66h-264v-214h232v-66h-232v-254h271v-66h-349q-44 -12 -97 -12q-77 0 -138 28t-103 75.5t-64.5 109.5t-22.5 131t22 131.5t64 110t102.5 76t137.5 28.5q52 0 99 -12h342zM478 594q-44 19 -97 19q-60 0 -105.5 -22.5t-77 -61t-47.5 -89t-16 -106.5t16 -107
t46.5 -89.5t76 -61.5t105.5 -23q55 0 99 18v523z" />
    <glyph glyph-name="oe" unicode="&#x153;" horiz-adv-x="859" 
d="M448 93q-29 -48 -73.5 -76.5t-112.5 -28.5q-61 0 -103 23.5t-68.5 60t-38.5 81t-12 86.5t11.5 87t37.5 81.5t67.5 60.5t102.5 24q69 0 115.5 -29.5t72.5 -76.5q28 51 73.5 78.5t104.5 27.5q48 0 85.5 -18.5t61.5 -51.5t34.5 -79t5.5 -101h-325q0 -39 8.5 -73.5
t26.5 -60.5t46.5 -41.5t69.5 -15.5q25 0 46 5t37.5 11.5t29 14t20.5 12.5l30 -57q-9 -6 -23.5 -14.5t-35 -16t-47 -13t-59.5 -5.5q-66 0 -114 28.5t-74 76.5zM739 300q-1 25 -7.5 48.5t-20 41.5t-35.5 28.5t-53 10.5q-58 0 -90 -36t-42 -93h248zM410 239q0 39 -9.5 73.5
t-29 60.5t-48 41t-65.5 15q-38 0 -64.5 -15t-43 -40.5t-24.5 -59.5t-8 -73t8.5 -73.5t26.5 -60.5t45 -41t65 -15q37 0 65 15t46 40.5t27 59.5t9 73z" />
    <glyph glyph-name="endash" unicode="&#x2013;" horiz-adv-x="525" 
d="M54 244v61h417v-61h-417z" />
    <glyph glyph-name="emdash" unicode="&#x2014;" horiz-adv-x="832" 
d="M54 244v61h724v-61h-724z" />
    <glyph glyph-name="quotedblleft" unicode="&#x201c;" horiz-adv-x="364" 
d="M204 508q0 25 7 49.5t17 45.5t21 37.5t18 25.5h54q-11 -14 -24 -39.5t-13 -53.5q0 -14 6 -23.5t13.5 -18.5t13.5 -19t6 -26q0 -21 -15.5 -35t-38.5 -14q-26 0 -45.5 18.5t-19.5 52.5zM33 508q0 25 7 49.5t17 45.5t21 37.5t18 25.5h54q-11 -14 -24 -39.5t-13 -53.5
q0 -14 6 -23.5t13.5 -18.5t13.5 -19t6 -26q0 -21 -15.5 -35t-38.5 -14q-26 0 -45.5 18.5t-19.5 52.5z" />
    <glyph glyph-name="quotedblright" unicode="&#x201d;" horiz-adv-x="364" 
d="M331 607q0 -25 -7 -49.5t-17 -45.5t-21 -37.5t-18 -25.5h-54q11 14 24 39.5t13 53.5q0 14 -6 23.5t-13.5 18.5t-13.5 19t-6 26q0 21 15.5 35t38.5 14q26 0 45.5 -18.5t19.5 -52.5zM160 607q0 -25 -7 -49.5t-17 -45.5t-21 -37.5t-18 -25.5h-54q11 14 24 39.5t13 53.5
q0 14 -6 23.5t-13.5 18.5t-13.5 19t-6 26q0 21 15.5 35t38.5 14q26 0 45.5 -18.5t19.5 -52.5z" />
    <glyph glyph-name="quoteleft" unicode="&#x2018;" horiz-adv-x="203" 
d="M43 508q0 25 7 49.5t17 45.5t21 37.5t18 25.5h54q-11 -14 -24 -39.5t-13 -53.5q0 -14 6 -23.5t13.5 -18.5t13.5 -19t6 -26q0 -21 -15.5 -35t-38.5 -14q-26 0 -45.5 18.5t-19.5 52.5z" />
    <glyph glyph-name="quoteright" unicode="&#x2019;" horiz-adv-x="203" 
d="M160 607q0 -25 -7 -49.5t-17 -45.5t-21 -37.5t-18 -25.5h-54q11 14 24 39.5t13 53.5q0 14 -6 23.5t-13.5 18.5t-13.5 19t-6 26q0 21 15.5 35t38.5 14q26 0 45.5 -18.5t19.5 -52.5z" />
    <glyph glyph-name="divide" unicode="&#xf7;" 
d="M1007 -217h-937v937h937v-937zM145 -142h787v787h-787v-787zM652 509h79l-202 -239l215 -270h-85q-59 73 -105 131q-20 25 -39 48t-33 42q-18 21 -32 41v-262h-68v509h68v-242z" />
    <glyph glyph-name="lozenge" 
d="M1007 -217h-937v937h937v-937zM145 -142h787v787h-787v-787zM652 509h79l-202 -239l215 -270h-85q-59 73 -105 131q-20 25 -39 48t-33 42q-18 21 -32 41v-262h-68v509h68v-242z" />
    <glyph glyph-name="ydieresis" unicode="&#xff;" horiz-adv-x="469" 
d="M249 -64q-12 -33 -27 -63.5t-37 -54t-53 -37t-75 -13.5q-19 0 -29 1.5t-17 3.5l10 61q5 -1 12 -2t25 -1q25 0 43.5 7t32.5 21t24.5 34t20.5 47l23 63l-181 477h82l137 -383h2l133 383h78zM388 592q0 -23 -15.5 -38.5t-38.5 -15.5q-22 0 -37.5 15.5t-15.5 38.5
q0 22 15.5 37.5t37.5 15.5q23 0 38.5 -15.5t15.5 -37.5zM201 592q0 -23 -15.5 -38.5t-38.5 -15.5q-22 0 -37.5 15.5t-15.5 38.5q0 22 15.5 37.5t37.5 15.5q23 0 38.5 -15.5t15.5 -37.5z" />
    <glyph glyph-name="Ydieresis" unicode="&#x178;" horiz-adv-x="555" 
d="M319 252v-252h-78v252l-223 414h87l178 -340h1l178 340h75zM407 772q0 -23 -15.5 -38.5t-38.5 -15.5q-22 0 -37.5 15.5t-15.5 38.5q0 22 15.5 37.5t37.5 15.5q23 0 38.5 -15.5t15.5 -37.5zM220 772q0 -23 -15.5 -38.5t-38.5 -15.5q-22 0 -37.5 15.5t-15.5 38.5
q0 22 15.5 37.5t37.5 15.5q23 0 38.5 -15.5t15.5 -37.5z" />
    <glyph glyph-name="fraction" horiz-adv-x="402" 
d="M70 -113h-70l411 833h69z" />
    <glyph glyph-name="currency" unicode="&#xa4;" horiz-adv-x="583" 
d="M39 365v59h76q10 53 31.5 99.5t56 81t81 54t105.5 19.5q63 0 97.5 -12.5t58.5 -27.5l-34 -61q-16 9 -45 22.5t-79 13.5q-41 0 -73.5 -14.5t-56 -40t-39 -60t-22.5 -74.5h178v-59h-185q-1 -7 -1 -14v-14q0 -14 0.5 -27t1.5 -26h184v-59h-173q9 -36 25 -67.5t39.5 -54.5
t54.5 -36t71 -13q45 0 76 13t50 26l36 -56q-12 -8 -26 -16.5t-33.5 -15.5t-45 -12t-59.5 -5q-57 0 -102 18.5t-78.5 50.5t-56 75t-33.5 93h-80v59h70q-1 13 -1.5 25.5t-0.5 25.5v15t1 15h-69z" />
    <glyph glyph-name="guilsinglleft" unicode="&#x2039;" horiz-adv-x="298" 
d="M178 56l-133 189l133 190h77l-132 -190l132 -189h-77z" />
    <glyph glyph-name="guilsinglright" unicode="&#x203a;" horiz-adv-x="298" 
d="M119 56h-76l132 189l-132 190h76l134 -190z" />
    <glyph glyph-name="fi" horiz-adv-x="537" 
d="M376 0v422h-203v-422h-73v422h-80v58h80v68q0 40 12.5 74t36.5 58.5t59 38t80 13.5q31 0 54.5 -4.5t42 -11t32.5 -15t25 -15.5l-37 -58q-17 12 -46 26t-74 14q-54 0 -83 -32t-29 -95v-61h276v-480h-73z" />
    <glyph glyph-name="fl" horiz-adv-x="544" 
d="M385 0v655q-11 4 -37.5 8.5t-64.5 4.5q-58 0 -84 -33t-26 -93v-62h113v-58h-113v-422h-73v422h-80v58h80v72q0 88 51.5 134t135.5 46q62 0 104.5 -8t66.5 -16v-708h-73z" />
    <glyph glyph-name="daggerdbl" unicode="&#x2021;" horiz-adv-x="543" 
d="M381 72l-82 8l13 -111v-137h-81v137l13 111l-82 -8h-110v70h110l82 -8l-16 142l16 142l-82 -8h-110v70h110l82 -8l-13 111v137h81v-137l-13 -111l82 8h110v-70h-110l-82 8l15 -142l-15 -142l82 8h110v-70h-110z" />
    <glyph glyph-name="periodcentered" unicode="&#xb7;" horiz-adv-x="220" 
d="M171 291q0 -26 -17.5 -43.5t-43.5 -17.5t-43.5 17.5t-17.5 43.5t17.5 43t43.5 17t43.5 -17t17.5 -43z" />
    <glyph glyph-name="periodcentered" unicode="&#x2219;" horiz-adv-x="220" 
d="M171 291q0 -26 -17.5 -43.5t-43.5 -17.5t-43.5 17.5t-17.5 43.5t17.5 43t43.5 17t43.5 -17t17.5 -43z" />
    <glyph glyph-name="quotesinglbase" unicode="&#x201a;" horiz-adv-x="203" 
d="M160 39q0 -25 -7 -49.5t-17 -45.5t-21 -37.5t-18 -25.5h-54q11 14 24 39.5t13 53.5q0 14 -6 23.5t-13.5 18.5t-13.5 19t-6 26q0 21 15.5 35t38.5 14q26 0 45.5 -18.5t19.5 -52.5z" />
    <glyph glyph-name="quotedblbase" unicode="&#x201e;" horiz-adv-x="374" 
d="M331 39q0 -25 -7 -49.5t-17 -45.5t-21 -37.5t-18 -25.5h-54q11 14 24 39.5t13 53.5q0 14 -6 23.5t-13.5 18.5t-13.5 19t-6 26q0 21 15.5 35t38.5 14q26 0 45.5 -18.5t19.5 -52.5zM160 39q0 -25 -7 -49.5t-17 -45.5t-21 -37.5t-18 -25.5h-54q11 14 24 39.5t13 53.5
q0 14 -6 23.5t-13.5 18.5t-13.5 19t-6 26q0 21 15.5 35t38.5 14q26 0 45.5 -18.5t19.5 -52.5z" />
    <glyph glyph-name="perthousand" unicode="&#x2030;" horiz-adv-x="1076" 
d="M317 354q0 -24 -8 -49t-25.5 -45.5t-44.5 -33.5t-64 -13q-38 0 -64.5 12.5t-43.5 33t-25 45t-8 48.5t8.5 49t25.5 45t44 33t65 13q37 0 64 -12.5t43.5 -32.5t24.5 -44.5t8 -48.5zM264 0h-63l287 480h63zM1042 129q0 -24 -8 -49t-25.5 -45.5t-44.5 -33.5t-64 -13
q-38 0 -64.5 12.5t-43.5 33t-25 45t-8 48.5t8.5 49t25.5 45t44 33t65 13q37 0 64 -12.5t43.5 -32.5t24.5 -44.5t8 -48.5zM712 129q0 -24 -8 -49t-25.5 -45.5t-44.5 -33.5t-64 -13q-38 0 -64.5 12.5t-43.5 33t-25 45t-8 48.5t8.5 49t25.5 45t44 33t65 13q37 0 64 -12.5
t43.5 -32.5t24.5 -44.5t8 -48.5zM256 352q0 38 -19.5 65t-61.5 27t-61 -26t-19 -64t20 -65.5t62 -27.5t60.5 26.5t18.5 64.5zM981 127q0 38 -19.5 65t-61.5 27t-61 -26t-19 -64t20 -65.5t62 -27.5t60.5 26.5t18.5 64.5zM651 127q0 38 -19.5 65t-61.5 27t-61 -26t-19 -64
t20 -65.5t62 -27.5t60.5 26.5t18.5 64.5z" />
    <glyph glyph-name="Acircumflex" unicode="&#xc2;" horiz-adv-x="627" 
d="M98 0h-77l255 666h76l256 -666h-85l-61 165h-303zM395 345l-42 114q-8 21 -15 41t-13 37q-7 19 -13 37h-2q-6 -18 -13 -37q-6 -17 -13 -37.5t-15 -40.5l-85 -228h253zM388 721l-81 85l-79 -85h-69l123 153h54l121 -153h-69z" />
    <glyph glyph-name="Ecircumflex" unicode="&#xca;" horiz-adv-x="503" 
d="M96 0v666h342v-66h-264v-214h232v-66h-232v-254h271v-66h-349zM353 721l-81 85l-79 -85h-69l123 153h54l121 -153h-69z" />
    <glyph glyph-name="Aacute" unicode="&#xc1;" horiz-adv-x="627" 
d="M98 0h-77l255 666h76l256 -666h-85l-61 165h-303zM395 345l-42 114q-8 21 -15 41t-13 37q-7 19 -13 37h-2q-6 -18 -13 -37q-6 -17 -13 -37.5t-15 -40.5l-85 -228h253zM341 846h109l-135 -126h-66z" />
    <glyph glyph-name="Edieresis" unicode="&#xcb;" horiz-adv-x="503" 
d="M96 0v666h342v-66h-264v-214h232v-66h-232v-254h271v-66h-349zM414 772q0 -23 -15.5 -38.5t-38.5 -15.5q-22 0 -37.5 15.5t-15.5 38.5q0 22 15.5 37.5t37.5 15.5q23 0 38.5 -15.5t15.5 -37.5zM227 772q0 -23 -15.5 -38.5t-38.5 -15.5q-22 0 -37.5 15.5t-15.5 38.5
q0 22 15.5 37.5t37.5 15.5q23 0 38.5 -15.5t15.5 -37.5z" />
    <glyph glyph-name="Egrave" unicode="&#xc8;" horiz-adv-x="503" 
d="M96 0v666h342v-66h-264v-214h232v-66h-232v-254h271v-66h-349zM263 720l-135 126h109l92 -126h-66z" />
    <glyph glyph-name="Iacute" unicode="&#xcd;" horiz-adv-x="282" 
d="M102 0v666h78v-666h-78zM184 846h109l-135 -126h-66z" />
    <glyph glyph-name="Icircumflex" unicode="&#xce;" horiz-adv-x="282" 
d="M102 0v666h78v-666h-78zM222 721l-81 85l-79 -85h-69l123 153h54l121 -153h-69z" />
    <glyph glyph-name="Idieresis" unicode="&#xcf;" horiz-adv-x="282" 
d="M102 0v666h78v-666h-78zM289 772q0 -23 -15.5 -38.5t-38.5 -15.5q-22 0 -37.5 15.5t-15.5 38.5q0 22 15.5 37.5t37.5 15.5q23 0 38.5 -15.5t15.5 -37.5zM102 772q0 -23 -15.5 -38.5t-38.5 -15.5q-22 0 -37.5 15.5t-15.5 38.5q0 22 15.5 37.5t37.5 15.5q23 0 38.5 -15.5
t15.5 -37.5z" />
    <glyph glyph-name="Igrave" unicode="&#xcc;" horiz-adv-x="282" 
d="M102 0v666h78v-666h-78zM137 720l-135 126h109l92 -126h-66z" />
    <glyph glyph-name="Oacute" unicode="&#xd3;" horiz-adv-x="760" 
d="M707 334q0 -69 -22 -131.5t-64 -110t-102.5 -76t-137.5 -28.5t-138 28t-103 75.5t-64.5 109.5t-22.5 131t22 131.5t64 110t102.5 76t137.5 28.5t138 -28t103 -75.5t64.5 -109.5t22.5 -131zM625 332q0 56 -16 107t-46.5 89.5t-76 61.5t-105.5 23t-105.5 -22.5t-77 -61
t-47.5 -89t-16 -106.5t16 -107t46.5 -89.5t76 -61.5t105.5 -23t105.5 22.5t77 60.5t47.5 89t16 107zM416 846h109l-135 -126h-66z" />
    <glyph glyph-name="Ocircumflex" unicode="&#xd4;" horiz-adv-x="760" 
d="M707 334q0 -69 -22 -131.5t-64 -110t-102.5 -76t-137.5 -28.5t-138 28t-103 75.5t-64.5 109.5t-22.5 131t22 131.5t64 110t102.5 76t137.5 28.5t138 -28t103 -75.5t64.5 -109.5t22.5 -131zM625 332q0 56 -16 107t-46.5 89.5t-76 61.5t-105.5 23t-105.5 -22.5t-77 -61
t-47.5 -89t-16 -106.5t16 -107t46.5 -89.5t76 -61.5t105.5 -23t105.5 22.5t77 60.5t47.5 89t16 107zM460 721l-81 85l-79 -85h-69l123 153h54l121 -153h-69z" />
    <glyph glyph-name="apple" 
d="M1007 -217h-937v937h937v-937zM145 -142h787v787h-787v-787zM652 509h79l-202 -239l215 -270h-85q-59 73 -105 131q-20 25 -39 48t-33 42q-18 21 -32 41v-262h-68v509h68v-242z" />
    <glyph glyph-name="Ograve" unicode="&#xd2;" horiz-adv-x="760" 
d="M707 334q0 -69 -22 -131.5t-64 -110t-102.5 -76t-137.5 -28.5t-138 28t-103 75.5t-64.5 109.5t-22.5 131t22 131.5t64 110t102.5 76t137.5 28.5t138 -28t103 -75.5t64.5 -109.5t22.5 -131zM625 332q0 56 -16 107t-46.5 89.5t-76 61.5t-105.5 23t-105.5 -22.5t-77 -61
t-47.5 -89t-16 -106.5t16 -107t46.5 -89.5t76 -61.5t105.5 -23t105.5 22.5t77 60.5t47.5 89t16 107zM361 720l-135 126h109l92 -126h-66z" />
    <glyph glyph-name="Uacute" unicode="&#xda;" horiz-adv-x="690" 
d="M600 253q0 -61 -15 -110t-46 -83.5t-78.5 -53t-112.5 -18.5q-68 0 -117 19t-80.5 53t-46 82t-14.5 107v417h78v-407q0 -104 44 -154t138 -50q90 0 133.5 53t43.5 137v421h73v-413v0zM377 846h109l-135 -126h-66z" />
    <glyph glyph-name="Ucircumflex" unicode="&#xdb;" horiz-adv-x="690" 
d="M600 253q0 -61 -15 -110t-46 -83.5t-78.5 -53t-112.5 -18.5q-68 0 -117 19t-80.5 53t-46 82t-14.5 107v417h78v-407q0 -104 44 -154t138 -50q90 0 133.5 53t43.5 137v421h73v-413v0zM436 721l-81 85l-79 -85h-69l123 153h54l121 -153h-69z" />
    <glyph glyph-name="Ugrave" unicode="&#xd9;" horiz-adv-x="690" 
d="M600 253q0 -61 -15 -110t-46 -83.5t-78.5 -53t-112.5 -18.5q-68 0 -117 19t-80.5 53t-46 82t-14.5 107v417h78v-407q0 -104 44 -154t138 -50q90 0 133.5 53t43.5 137v421h73v-413v0zM333 720l-135 126h109l92 -126h-66z" />
    <glyph glyph-name="dotlessi" unicode="&#xd;" horiz-adv-x="250" 
d="M88 0v480h74v-480h-74z" />
    <glyph glyph-name="circumflex" unicode="&#x2c6;" horiz-adv-x="500" 
d="M330 541l-81 85l-79 -85h-69l123 153h54l121 -153h-69z" />
    <glyph glyph-name="tilde" unicode="&#x2dc;" horiz-adv-x="500" 
d="M395 601q-8 -10 -17.5 -20.5t-21 -18.5t-25.5 -13.5t-32 -5.5t-31.5 6t-25 13.5t-23 13.5t-26.5 6q-17 0 -29.5 -12.5l-19.5 -19.5l-39 37q7 9 16 19.5t20.5 19.5t26 15t31.5 6q19 0 32.5 -6t25 -13.5t23 -13.5t25.5 -6q20 0 32.5 11.5t18.5 19.5l39 -38v0z" />
    <glyph glyph-name="macron" unicode="&#xaf;" horiz-adv-x="500" 
d="M114 574v61h271v-61h-271z" />
    <glyph glyph-name="breve" horiz-adv-x="500" 
d="M393 678q-3 -37 -16 -64t-32.5 -44t-44 -25.5t-50.5 -8.5t-50.5 8.5t-44 25.5t-33 44t-16.5 64h65q3 -38 23.5 -61t55.5 -23t55 23t23 61h65v0z" />
    <glyph glyph-name="dotaccent" horiz-adv-x="500" 
d="M307 621q0 -24 -16.5 -41t-40.5 -17t-40.5 16.5t-16.5 40.5t16.5 41t40.5 17t40.5 -16.5t16.5 -40.5z" />
    <glyph glyph-name="ring" horiz-adv-x="500" 
d="M345 640q0 -20 -8 -37.5t-21 -30t-30 -20t-36 -7.5t-36 7.5t-30 20t-21 30t-8 37.5t8 37.5t21 30t30 20t36 7.5t36 -7.5t30 -20t21 -30t8 -37.5zM300 640q0 23 -13.5 39t-36.5 16t-36.5 -16t-13.5 -39q0 -22 13.5 -38.5t36.5 -16.5t36.5 16.5t13.5 38.5z" />
    <glyph glyph-name="cedilla" unicode="&#xb8;" horiz-adv-x="500" 
d="M336 -136q0 -41 -32.5 -62t-77.5 -21q-27 0 -42.5 4t-23.5 8l12 42q7 -4 20 -7.5t33 -3.5q23 0 36.5 9.5t13.5 29.5q0 14 -6 22t-16 12.5t-23 5.5t-26 1l36 96h51l-25 -66q31 -5 50.5 -23t19.5 -47z" />
    <glyph glyph-name="hungarumlaut" unicode="&#xa;" horiz-adv-x="500" 
d="M337 666h105l-133 -126h-65zM173 666h105l-133 -126h-65z" />
    <glyph glyph-name="ogonek" horiz-adv-x="500" 
d="M331 -202q-11 -6 -28 -11.5t-40 -5.5q-48 0 -73 27t-25 65q0 20 6.5 39t16 35.5t21 30t20.5 22.5h50q-17 -22 -34.5 -51t-17.5 -68q0 -48 50 -48q22 0 43 8l11 -43v0z" />
    <glyph glyph-name="caron" horiz-adv-x="500" 
d="M170 692l81 -85l79 85h69l-123 -153h-54l-121 153h69z" />
    <glyph glyph-name="Eth" unicode="&#xd0;" horiz-adv-x="679" 
d="M26 314v58h70v294h156q98 0 169.5 -24t117.5 -66.5t68 -102.5t22 -132t-22.5 -134.5t-69 -108t-118.5 -72t-172 -26.5h-151v314h-70zM285 372v-58h-111v-250h80q145 0 219 69.5t74 205.5t-73 199.5t-225 63.5h-75v-230h111z" />
    <glyph glyph-name="eth" unicode="&#xf0;" horiz-adv-x="541" 
d="M218 543l-38 44l64 54q-66 30 -156 30l15 61q113 0 197 -43l72 61l38 -44l-59 -50q71 -55 108 -145t37 -211q0 -62 -14 -118.5t-43 -99.5t-73.5 -68.5t-104.5 -25.5q-44 0 -83.5 16.5t-70.5 48.5t-49 79t-18 107q0 58 16.5 104t46 77.5t69 48t85.5 16.5q30 0 53.5 -6
t42.5 -16t33 -22t23 -25q-25 130 -112 194zM419 323q-8 14 -21 31.5t-33 32.5t-48 25t-65 10q-63 0 -98.5 -49t-35.5 -132q0 -91 40 -140.5t106 -49.5q71 0 113 63t42 193v16v0z" />
    </font>
</defs>
</svg>
